<mxfile host="app.diagrams.net" modified="2024-01-11T16:48:57.262Z" agent="Mozilla/5.0 (Windows NT 10.0; Win64; x64) AppleWebKit/537.36 (KHTML, like Gecko) Chrome/120.0.0.0 Safari/537.36" etag="W1tLLxJaD918SwdkrnJW" version="22.1.18" type="github">
  <diagram name="Page-1" id="dSPQVpvy3G5dYckNhdGG">
    <mxGraphModel dx="1276" dy="543" grid="1" gridSize="10" guides="1" tooltips="1" connect="1" arrows="1" fold="1" page="1" pageScale="1" pageWidth="850" pageHeight="1100" math="0" shadow="0">
      <root>
        <mxCell id="0" />
        <mxCell id="1" parent="0" />
        <mxCell id="M8KruG-5j8hHxM1ddN9G-1" value="" style="shape=image;verticalLabelPosition=bottom;labelBackgroundColor=default;verticalAlign=top;aspect=fixed;imageAspect=0;image=data:image/jpeg,/9j/4AAQSkZJRgABAQAAAQABAAD/4gHYSUNDX1BST0ZJTEUAAQEAAAHIAAAAAAQwAABtbnRyUkdCIFhZWiAH4AABAAEAAAAAAABhY3NwAAAAAAAAAAAAAAAAAAAAAAAAAAAAAAAAAAAAAQAA9tYAAQAAAADTLQAAAAAAAAAAAAAAAAAAAAAAAAAAAAAAAAAAAAAAAAAAAAAAAAAAAAAAAAAAAAAAAAAAAAlkZXNjAAAA8AAAACRyWFlaAAABFAAAABRnWFlaAAABKAAAABRiWFlaAAABPAAAABR3dHB0AAABUAAAABRyVFJDAAABZAAAAChnVFJDAAABZAAAAChiVFJDAAABZAAAAChjcHJ0AAABjAAAADxtbHVjAAAAAAAAAAEAAAAMZW5VUwAAAAgAAAAcAHMAUgBHAEJYWVogAAAAAAAAb6IAADj1AAADkFhZWiAAAAAAAABimQAAt4UAABjaWFlaIAAAAAAAACSgAAAPhAAAts9YWVogAAAAAAAA9tYAAQAAAADTLXBhcmEAAAAAAAQAAAACZmYAAPKnAAANWQAAE9AAAApbAAAAAAAAAABtbHVjAAAAAAAAAAEAAAAMZW5VUwAAACAAAAAcAEcAbwBvAGcAbABlACAASQBuAGMALgAgADIAMAAxADb/2wBDAAMCAgICAgMCAgIDAwMDBAYEBAQEBAgGBgUGCQgKCgkICQkKDA8MCgsOCwkJDRENDg8QEBEQCgwSExIQEw8QEBD/2wBDAQMDAwQDBAgEBAgQCwkLEBAQEBAQEBAQEBAQEBAQEBAQEBAQEBAQEBAQEBAQEBAQEBAQEBAQEBAQEBAQEBAQEBD/wAARCAIyAk8DASIAAhEBAxEB/8QAHQABAAMBAQEBAQEAAAAAAAAAAAUGBwgEAwIJAf/EAFAQAAAGAQICBAgJCAkEAgIDAQABAgMEBQYHERITCBQVIRYXIjFRYXXVMjY3QVZXlZe0GFVYY3K10tQjQlJicXODltMkM4GzCYQ0lENTdLH/xAAaAQEBAAMBAQAAAAAAAAAAAAAAAwECBAUG/8QAMREBAAEBBAgGAgMBAQEBAAAAAAECETJRsQMSEzNxgZHBBCExQbLRUuFhofAUIhVi/9oADAMBAAIRAxEAPwDtbB8HwqXhWPy5eH0jz71XEccccr2VLWs2UmalGadzMzPczMTfi+wL6EUH2az/AAhp98Qsb9kQ/wD0oE+PptJpK9efOfV4dFFOrHkgPF9gX0IoPs1n+EPF9gX0IoPs1n+ET4DTaV4y21KcEB4vsC+hFB9ms/wh4vsC+hFB9ms/wifANpXjJqU4IDxfYF9CKD7NZ/hDxfYF9CKD7NZ/hE+AbSvGTUpwQHi+wL6EUH2az/CHi+wL6EUH2az/AAifANpXjJqU4IDxfYF9CKD7NZ/hDxfYF9CKD7NZ/hE+AbSvGTUpwQHi+wL6EUH2az/CHi+wL6EUH2az/CJ8A2leMmpTggPF9gX0IoPs1n+EXrS35MsR9gwPw6BCCb0t+TLEfYMD8Ogcfjqpq0UWz79pdPhIiNJ5YfS0AADyHogAAAAAAAAAAAAAAAAAAAAAAAAAAAAAAzPU6nqLvNcaiXNVDnsIq7VxLcphLqCWT0EiURKIy32My39ZjTBn2dfH3HPZFt/7oA7PAzMaeJjCcpc/i4t0U2/xnCveL7AvoRQfZrP8IeL7AvoRQfZrP8InwHr7SvGXm6lOCA8X2BfQig+zWf4Q8X2BfQig+zWf4RPgG0rxk1KcEB4vsC+hFB9ms/wh4vsC+hFB9ms/wifANpXjJqU4IDxfYF9CKD7NZ/hDxfYF9CKD7NZ/hE+AbSvGTUpwQHi+wL6EUH2az/CHi+wL6EUH2az/AAifANpXjJqU4IDxfYF9CKD7NZ/hDxfYF9CKD7NZ/hE+AbSvGTUpwQHi+wL6EUH2az/CHi+wL6EUH2az/CJ8A2leMmpTgisNx+hotTYHYdJX13PobLm9UjIZ4+GRB24uEi323Pbf0mNYGbUXym1fsG0/EQBpI8rx8zOkiZw7y9DwkRFE2YgAA4XUAAAKXq/Hjy8HciS2G3mHrSpbcbcSSkLQdjHI0qI+4yMu4yMVHxfYF9CKD7NZ/hFy1X+J5e16f95RhGD2fA1VU6Dyn3nKHm+KpidL5x7RnKA8X2BfQig+zWf4Q8X2BfQig+zWf4RPgOraV4y59SnBAeL7AvoRQfZrP8IeL7AvoRQfZrP8InwDaV4yalOCA8X2BfQig+zWf4Q8X2BfQig+zWf4RPgG0rxk1KcEB4vsC+hFB9ms/wAIeL7AvoRQfZrP8InwDaV4yalOCA8X2BfQig+zWf4Q8X2BfQig+zWf4RPgG0rxk1KcEB4vsC+hFB9ms/wh4vsC+hFB9ms/wifANpXjJqU4IDxfYF9CKD7NZ/hFJ1ow/EarTS4n1mLVEOS11fgeYgtNuJ3kNkeykpIy3IzL/AzGqig67/JTef8A1vxLQt4fSVzpqYmfeM09LTTGjq8vaU/p98Qsb9kQ/wD0oE+IDT74hY37Ih/+lAnxHSX54qUXYAABo2AHKmhabfKMtuLe+xXV+5cjZtcRmr5rPHG6OOyzLWlttUA7VBqbQREg0FDUR+hRd4+tHr1r5k07FEwFYBDj5haZFTME9UzXVwV1zj/LkqMpSSeJaGkpUyRNmSjNRO7eQJxpIstlvqedkOpgHL1F0hdZs9rqleJxcLqZcjA3crlHYwZcttUpmStlTLZNvtmhtZIMyUZqNG5dznmFeb6SmStZvdZrWokuM5DhmDHUU82Ys4ECfaz5bBvKRxEkiI1Nms08KnCaSncj4dm1pZ2cuwgHO0jXvUbDb+Vj2dNYxMaxrJ62rvravhPxWXK+xYM4z7bLj7hsOIfNLa0qcdSpJkojSauFNXtOlVqa7WYkinoYbFlllbaZNENnEbe8JdY0+SIUfkQVcxt55K21LkKPlo3/AO2fEREnS0wxs5l1iA5ayHpVakeFzdPjenNi2qrqKWys6ReIXNjOlPTt1OxikRkE1Xmy2RnxSEL5iuIuFBJMz6kSriSStjLct9jLYxtTXFXoxNM0+r/QABs1BN6W/JliPsGB+HQIQTelvyZYj7Cgfh0Dk8buufaXR4XecvpaAAB5T0AAAAAAAAAAAAAAAAAAAAAAAAAAAAAAAZ9nXx9xz2Rbf+6ANBGfZ18fcc9kW3/ugDr8Dv44TlLn8Vup5Zw/IAA9V54AAAAPw660w0t95xKG20mtalHsSUkW5mZ+gcbdHzpCw8p6QMmXI1or76s1NVZIqMcRfMyTo1QHeGMSI6Vmpk5EcnHT3ItzSQ0qrimYifdtTTNUTMOzAHKHRoRb5HBh5Rf4rrDNndo2xnkkvPXHaRfLkvoQXUDtTM0EkiQSTh7EZEexEXEOfKzVrVhzQm10te1Vy3wpyRT2V1l4du8dhFqGWpTshDT5q4ySl6CTXcfcmQkiGk6ayImY9W8aK2bLX9MgHG+veR6mY9S6c53axtQ7DTksWZK9tMKvH49tTT1IbcKydZQfDMaJKTJSX0uNERrUpO+xL69qZ0WzqoVlBlnKjS47b7L5kRG6hSSNK9iIttyMj8xefzEN6a9aZhpNNkWvWAAN2oAAA+NF8ptX7BtPxEAaSM2ovlNq/YNp+IgDSR5njt5HDvLu8Jcnj9AAA4nUAAAKfqv8Ty9r0/7yjCMEnqv8Ty9r0/7yjCMHr+C3HOcoed4re8ozkABxdqN0iolP0qGrZGtVfXUGHXFbhs/ElW6G1WKpyF9Zm9V5hG5yHXoaScJBkgm3yM+4+G1dcURbKVNM1ejtEByVrVq/qfdyMhRi1/W0mOYjqJi+MPNwykItpLrs2Et9apKHibSwpD5NmwbRmtKlGayLyDmXteNbZ95Ai0xYPGhWuf2uCslKrJbrrBMturZmKUmSkl8JtbLZIk8e+5ON+YsbWLbGdnNlrpwBynXdIjNrNGNX9hWVabRvHMxellHemtw3ZdW6hpK0xif4DbWaTVs4Ti0EeyXC3UavjlHSC1Na0zz1/KIVCqU1paznNYVX16AqMp1C0rjOvNSieUZKSRpdZWyoiMyLYyJRtrSbOXWQDmqT0jM7x/XGn0+yqtrcbxa2VXQqmda01gpq6dfiqcUUa0Q4thL6Fp26s80RqSRnzuIySVcw/WLXqIxTVT+VYta2OZan3uLszJ9HJ5ddGjMS1pNLSJZcZEqMjZBKR5PEk1GpXNJtY9GdnLrgBzRD6R2oLmrNPjrEeiu8QtrC1oTsoVTIioZsYLLilpTIelGp8+JlwloRG5SDPgKS4pCt4dOqevmYYvolmCMwxWlbzzI4yJcGFQyVlyOrPuG2txUwjWlRtb7JJGxmkjNZJPjbWPZjZy6vAc61fSC1Akv0WaSoWPeB2UZJPxaFWNxHis4jzKn0NSXZJvG04laoy+JkmW1IJxPlqNJkq/8AR8zPOtSNNKbULNn6FK8ghtS48OqgvMlGI9yUS1uPOczcyIy2Sjh83l/CGYriqbIYmmYi2Wlig67/ACU3n/1vxLQvwoOu/wAlN5/9b8S0Onw++o4xmjpt3VwlP6ffELG/ZEP/ANKBPiA0++IWN+yIf/pQJ8aaS/PFtRdgAAGjZnNVoBpxRXjuQUh5ZXvv2Llq7Gi5pctQXJTizccWqGmUUcyUozNSTb4T37yEnV6OacUyqZdbjnJPH5k+wrv+sfVyH5vH1lflLPi4+YvuVuSd/JItiFzAa6tMezOtOLFZfRP0zmZHCluMSGsfr8bXjkeojTJbDiWlyTfc3ltvpeU2vfhWyozSsvhbkWwuc3RTS2xk2sqXh8VS7qqh0ktKXHEIOHEW4uM22hKiS0banVqStskrI9jJXkp2u4BFFMezOtOLHc56N2PX+ll3pPiUxmmrsskceQzbRuVcz57aiSS1dafkk6b/AAoQlDrq3SbShJEgySkitGUaJabZlVU1PfUcg2aCMcOCuFZSoDyIymybWwpyK42tbK0pSS2lGbauFPEk9i2vQBqU4GtOKg3mhGlGRXUC+s8SQUmujxoiG40uRGjPx46+OO1IjsuJZlNtKM1NoeQtKDMzSRbmL8ADMREejFsyAADLAJvS35MsR9gwPw6BCCb0t+TLEfYMD8Ogcnjd1z7S6PC7zl9LQAAPKegAAAAAAAAAAAAAAAAAAAAAAAAAAAAAADPs6+PuOeyLb/3QBoIz7Ovj7jnsi2/90Adfgd/HCcpc/it1PLOH5AAHqvPAAAHjuaiBkFROorVpbsKxjuRZKEOraUtpaTSoiWgyUncjMt0mRl8xiAf0swGTT4zQLx5tMHDpEaVRtNvutnCdYQaGjSpKiUeyTMjJRmSiM+IjFrAYmIktlnGM9H3TbDZ7U/Gjy2ChmQ7KRCTmt0qvJxxSlr3hqlnHNJqWo+E2+Hc/MPnH6NuikVuG2xhDaSgUk3HI59ekmpFdLXxyGeI3Nz4ld/EZmpO5kk0kZjSwGNSnBnWnFneS9H3SfLXYL1zj0wlQK1FMRQrqdCTJgJ24Ysoo7yCltFt8B/mJ71d3lK30FhhiKw3GjMoZZZQTbbbaSSlCSLYkkRdxERd2w/YDMREehMzPqAADLAAAA+NF8ptX7BtPxEAaSM2ovlNq/YNp+IgDSR5njt5HDvLu8Jcnj9AAA4nUAAAKfqv8Ty9r0/7yjCMEnqv8Ty9r0/7yjCMHr+C3HOcoed4re8ozkFJLRjTXwFu9Njxvix7I35cm0irmSFLkOyXDceWbxr5qVGs9yNKyNOySTwkkiK7AOiYifVG2YZtedHTR/I7wsht8YkuzObAkuE3cTmmHpEJxK4sh1hDxNOvNmhJE6tJuGkuA1GkzScuxo/p1GfiSGcd4XIN+/lDB9bfPgs3krS4/3r79ycWXAe6C37klsQuQDGrTga04qAxoNpRGaZZYxThRHj2kVsuvST4WrFfHMT3ud/MV37+dP9XhIfuz0L0rua6dU2WLc6JY42nEZLfXpKeZUp32j7k4Rl8I/LIyX/eF8ANWnA1pxZ87oHpS9lrOaqxyQmyZksTjbbtZiIT0phommZL0NLpRnn0IJKUuuNqWXAjyvJTt+4WhOl1feMZFEx+SmZEvHsljEq1mLYj2TrTrTr7TCnTab40Pu8SUpJBmriNPERGV+ANWnA1pxZoz0ctH4+Yt54zjUxNuxOk2TB9tz+rMSZCFokONRedyG+YS1GsktkSlbKMjUlJlJP6KabP4njuElRSY9TichqVSoi2kuO/CdbJRJUiQ26l7zLURkazJRKMlbkewvIBq04GtOKjQtEtMq/KHcviY4tNg44++ltU+SuIw+8k0vPsxFOHHYecI1Et1ttLiuJW6j4j3seJYpQYNjddiOLQOpVNUwUaJH5q3OW2XmLiWalH/AImZmJYBmIiPQmZn1BQdd/kpvP8A634loX4UHXf5Kbz/AOt+JaF/D76jjGaWm3dXCU/p98Qsb9kQ/wD0oE+IrH8N1NoqGto+yMYf7OhsxOb23ITx8tBJ4tuqHtvtvtuY9/YWpv5hxj7dkfyYhXpdHNUzFUdYVp0dcREWT0fYB8ewtTfzDjH27I/kw7C1N/MOMfbsj+TGu00f5R1hnZ14T0fYB8ewtTfzDjH27I/kw7C1N/MOMfbsj+TDaaP8o6wbOvCej7APj2Fqb+YcY+3ZH8mPA83qGxew8fXjuOnImxJMxtRXj/ASGVsoWRn1TfczkI27ttiV3l3b5iuifKKo6wTRVHrE9EqA+PYWpv5hxj7dkfyYdham/mHGPt2R/JjG00f5R1g2deE9H2AfHsLU38w4x9uyP5MOwtTfzDjH27I/kw2mj/KOsGzrwno+wD49ham/mHGPt2R/Jh2Fqb+YcY+3ZH8mG00f5R1g2deE9H2E3pb8mWI+wYH4dAr3YWpv5hxj7dkfyYuGGU0rHcPosfmuNLkVlbFhvKaMzQpbbSUKNJmRGZbpPbciPb5hy+Mroq0cRExPn9ujw1FUV2zHsmQAB5juAAAAAAAAAAAAAAAAAAAAAAAAAAAAAABn2dfH3HPZFt/7oA0EUvOMbyezvqe8xyPVyOow5sR5qbMcj/8AeXHUlSTQ05vtyFEZGRfCIdXg6oo00TVNnrlKHiaZq0cxH8ZvAA+PYWpv5hxj7dkfyYdham/mHGPt2R/Jj09po/yjrDg2deE9H2AfHsLU38w4x9uyP5MOwtTfzDjH27I/kw2mj/KOsGzrwno+wD49ham/mHGPt2R/Jh2Fqb+YcY+3ZH8mG00f5R1g2deE9H2AfHsLU38w4x9uyP5MeCgb1DyKirsghY7jqI9nEZmMpdvHyWlDiCWklEUQyI9lFvsZlv8AOM69FlutHWDUqtssnolQHx7C1N/MOMfbsj+TDsLU38w4x9uyP5MY2mj/ACjrBs68J6PsA+PYWpv5hxj7dkfyYdham/mHGPt2R/JhtNH+UdYNnXhPR9gHx7C1N/MOMfbsj+TDsLU38w4x9uyP5MNpo/yjrBs68J6FF8ptX7BtPxEAaSKFjGMZgzmEfIMgh00WPFrZcNKYdg7JWtbzsdZGZLYbJJETB/OZ7qLuF9Hm+MqpqrjVm3y+3d4amaaJtj3AAByOgAAAU/Vf4nl7Xp/3lGEYLDn1HZ5FjLlbTdVOYmZCltpkuqbaVyJTTxpNSUqNO5NmRGST7zIVjsLU38w4x9uyP5Mep4PSUU6HVmYibZyhweJoqnSWxHt9vsA+PYWpv5hxj7dkfyYdham/mHGPt2R/Jjp2mj/KOsIbOvCej7APj2Fqb+YcY+3ZH8mHYWpv5hxj7dkfyYbTR/lHWDZ14T0fYB8ewtTfzDjH27I/kw7C1N/MOMfbsj+TDaaP8o6wbOvCej7AIqub1Ds5lpCj47jqV1EtMN813j5EpamGniNO0Q9y4XkF37HuR922xn7+wtTfzDjH27I/kxma6KfKao6wRRVPpE9H2AfHsLU38w4x9uyP5MOwtTfzDjH27I/kxjaaP8o6wbOvCej7APj2Fqb+YcY+3ZH8mHYWpv5hxj7dkfyYbTR/lHWDZ14T0fYUHXf5Kbz/AOt+JaF47C1N/MOMfbsj+TEBnmnGpubYpOxjs/GIXXeV/T9sSHODgcSv4PVC334dvP8AOK6HTaKjSU1TVFkTHvDTSaKuqiYimfTBtAAA+deyAAAAAAAKvYfKbQewbf8AEV4tAq9h8ptB7Bt/xFeK6G9PCcpT0l3nGcLQAAJKAAAAAAAAAAAAAAAAAAAAAAAAAAAAAAAAAAAAAAAAAAAAAAAAAAAAAAAAACr6W/JliPsGB+HQLQKvpb8mWI+wYH4dArG6njGUpzvI4T2WgAASUAAAAAAAAAAAAAAAAAAAAAAAAAAAAAAVfEfjBm/t5r92QRaBV8R+MGb+3mv3ZBFoFdNejhGUNNH6c5zAABJuAAAAAAAAAAAAAAAAAKvYfKbQewbf8RXi0Cr2Hym0HsG3/EV4rob08JylPSXecZwtAAAkoAAAAAAAAAAAAAAAAAAwLXrpWRNE9ScW02Xj1PIlZLFXObkXWRJpWn0IfQ2tiI66yth6SRL4yaedjpV5JEs1KIh9bPpR9nT8theAvM8FtQKbBuLtPbrHX2YjnWtiaPg4Ot7cvdXFy9+MuLuDeAHMWN9I3UWhvb13M8bjW+Io1LkYa1bpsUMS68nFIRESmGiPs+yTiyQpxTyXCNe/Csi3H+VXS31FyBGOLpNDqpZZfW286nOTmBtf0la4ZPokcMJXKQpBcTa0cxRqMkqQgt1EHTwDkHPul3l0vTp/UXSylU0/YaWMZvBh3M1lMWKb0hKDNSW4y3VvISozT/TE0rhIjQnc1CD1L6QGYY5qDkldqNrTmmncSpxGjnx42IYyxeVyLOWT6VpfmvU7xpSpxDSUG4cclbnsRd+wdtAOTcy6bErRmnxvH9VKvEWM1i4jDyTLoVhljFUtHMPgWzWtqbcKdJM0PKJklNp8ki5hcRCyZJ0tbiFPtbHEtMI19iVLktLicu0VfnHl9envRkqWiKUZaVMMolJM1m8SlLLhJBJ3cIOjgGIH0mG0SWWHcOJCHdRncAU4dj3IJDSnDmbcrv8Ag7cr1/DFO046deIaiZPKpa2op5jD1PbXNSzS5MxZWym4CiJbM6AlCFQnnUmS2kkt0lESiUaDIiMOoAHG35bWbaiaDWGpulWOYN15u4pILKmcv6+02xOfbaUl5HVESIspClGhTb0fgIjJxC3iLhPsOIqUuKyucy0zJU2k3m2nTcQhe3lJSs0pNREe5EZpSZl37F5gH2AAAAAAAAAAAAAAAAAAAAFX0t+TLEfYMD8OgWgVfS35MsR9gwPw6BWN1PGMpTneRwnstAAAkoAAAAAAAAAAAAAAAAAAAAAAAAAAAAAAq+I/GDN/bzX7sgi0Cr4j8YM39vNfuyCLQK6a9HCMoaaP05zmAACTcAAAAAAAAAAAAAAAAAVew+U2g9g2/wCIrxaBjfSA1lxfQJ2LqhmFddzqupx+2U6zUQFS5Ct5Fft3FslCe7vW4pKC7t1FuW9dDenhOUp6S7zjOGyAOD+i9/8AI5adIbUnLrC2wm4osEx2E1HhV1LidxkVjImPumaH5L8CO6hhCW2HCJpSEmZunspzlmZdN/lLadfRzVX7p8q93CSjVQGVflLadfRzVX7p8q93B+Utp19HNVfunyr3cA1UBlX5S2nX0c1V+6fKvdwflLadfRzVX7p8q93ANVAZV+Utp19HNVfunyr3cH5S2nX0c1V+6fKvdwDVQGVflLadfRzVX7p8q93B+Utp19HNVfunyr3cA1UBlX5S2nX0c1V+6fKvdwflLadfRzVX7p8q93AP1rV0faLXOE/TZLm2WV1LYwuzraor5MZUKyj8wlklxqSw8TSyMu56PyniI/8AueSnhhrbon4HZ5LKvYuT5TVwZ1zU5DIo4L8VMByxr0tIYfPjjqf3NthpCk83gMkkZJJREopf8pbTr6Oaq/dPlXu4PyltOvo5qr90+Ve7gEYx0V8MbyiTfSMxzCXWzMnXmMjHpEyOqsdtTIuW6aSYJ4ktmlKktpdJBqIlLStXeJDH+jZg2Nt4k3Btb1ZYbDt4UDmvsnzEWJ7vm7s0W5p/qcPCRfOSh+/yltOvo5qr90+Ve7g/KW06+jmqv3T5V7uAQMbofaYxsMYwbtjJXK+Pgren6FrlMc3s9CyWl4zJki55KIj4tuD+4J1no44TIayhvLLW5yrwzx2HjN0dqcYilRY6XUpXwx2WkpcUTyuI0kSdySaUp27/APfyltOvo5qr90+Ve7g/KW06+jmqv3T5V7uARbXRdpIcSgaq9VNQq6dTUzGOzLWHYRWp1zWMucbUeU8UbdPD5RE7H5DxEtWzm57iuazdFCTmMt650/zWyrHLPK8fyW0o5ktsqmS9AmRluyjNMdck5Co8fgJPNJlSySpSSUXGV3/KW06+jmqv3T5V7uD8pbTr6Oaq/dPlXu4B4JHRdw+RnCMyPMMsRHaylOZNUSJMUq5FpyVNOObcjnKS4lRmptTqkkrvSSDEhhnR6osHdmRqrPs6XRrhy4FZQ9slHg07MlzmO9W6shp1SyV8Bx9x1bRbk0pBGoj/AM/KW06+jmqv3T5V7uD8pbTr6Oaq/dPlXu4BV1dDfBZjGUyL3OsyuL/LG6pmRkUtyvTYMIrXebDJHKiIZcUhfea32nVr2IlqURERbtBjuxITEWROfmustpbXJfJBOPKItjWom0pQSj858KUlufcRF3DMfyltOvo5qr90+Ve7g/KW06+jmqv3T5V7uAaqAyr8pbTr6Oaq/dPlXu4PyltOvo5qr90+Ve7gGqgMq/KW06+jmqv3T5V7uD8pbTr6Oaq/dPlXu4BqoDKvyltOvo5qr90+Ve7g/KW06+jmqv3T5V7uAaqAyr8pbTr6Oaq/dPlXu4PyltOvo5qr90+Ve7gGqgMq/KW06+jmqv3T5V7uD8pbTr6Oaq/dPlXu4BqoDKvyltOvo5qr90+Ve7g/KW06+jmqv3T5V7uAaqKvpb8mWI+wYH4dAqX5S2nX0c1V+6fKvdwtek7qX9LMNfQSyS5j9csiWg0KIjjIPvSoiMj9RluQrG6njHdOb8cJ7LUAAJKAAAAAAAAAAAAAAAAAAAAAAAAAAAAAAKviPxgzf281+7IItAq+I/GDN/bzX7sgi0CumvRwjKGmj9Oc5gAAk3AAAAAAAAAAAAAAAAAFXsSJWplClREZHQ25GR//AOivFoFXsPlNoPYNv+IrxXQ3p4TlKeku84zhXsP6OmjunmpdnqxgWGRsdvrqvXXWaaxSo8OYhTqHeYuKkyZ5pKQf9ISSUfGvcz3GkgAkoAAAAAAAAAAAAAAAAAAAAAAAAAAAAAAAAAAAAAAAAAAAAAAAAAAAAAAAAAKvpb8mWI+wYH4dAtAq+lvyZYj7Bgfh0CsbqeMZSnO8jhPZaAABJQAAAAAAAAAAAAAAAAAAAAAAAAAAAAABV8R+MGb+3mv3ZBFoFXxH4wZv7ea/dkEWgV016OEZQ00fpznMAAEm4AAAAAAAAAAAAAAAAAq9h8ptB7Bt/wARXi0Cr2Hym0HsG3/EV4rob08JylPSXecZwtAAAkoAAAAAAAAgs4zjFtN8XnZpmtqmtpa1KFSpSmnHCaJSyQRmltKlH5SiLuLu33PuFMl9JfRuutINLZZFZQpk5DTvBKx6yZKG268pll2Ypcckwm3XEqS0uQbaXdjNBqLvAagAzi06Q+kVNlq8IsMmkotG7SNSKNFRNcilYyCI2onWkMnH5xkolG3zOJKT4lEku8euo1z0svl06KrKeed9c2OPV/8A0UhHOsIKnUymfKbLh4DYd8pWyVcPkmrctwvgDMYHSW0SsFXpt5uiOxjsCRaTJc2BKiRXIbClIfkRpDzSWpjTakmlS46nEpM0kZkak71vLOmDpRj2FM5pVxsnumnMgg447BYxmzanRJMk0Gk34rkcpDSTbWS0bt/0u6Ut8RqIBuQDDMg6Sk9rXReh+D4NAyGyroVdZ2rEjIUVlkUOW4aTfhxH2uCUlhJEt4lPtKSSiIkqUZEd9VrRpoh92MrJdnGckTiK09Tkd1spJKKP8D0KI+P4H94BdgGHaU9LTT/USwTjtwzKxy+k313RwYr0aW7EmOV0p9pRNzjYRGN9TcdT3ViWbqUn5lFso/SrpidHwmWX2svtZCZde7axCjYtbPqmRWXCbfcjpRGM3+Uo/wClJslKaLdSySkjMBtADCs86W+B4RW5TfspRkNZj+NVWRsJpEzJcuU1YOvNsKUhMXlNsmbXc6l5ai8vjbRsnme6q6Vmm87K8ux2yh5DSRcNp4FvOsrWhnxGVJlJNSW0k6wk+Mi5ZJQezji1KShBmgwGzgMvV0l9GkY9FyNeSWKW5lx2AzXqoLErY7HhNZxjrTY64lfLSbmxsl/R+X8AyUKjj/SnlZtjeMO4Pp+1ZZRmNpbwaurfuerxG41e+429NkyuQpbTRkhGxIYcXxvITsZbrIN+AZz43HcSxcrjWfGF4nZKn9mx4NY+5fdpumXEk4CIrXWpJGklHwnGbcLgWZoJKeI/jK6R+jkWjosgPKJUiNkzctdUzEpp0mXIVFTxSGuqtMqfS82RKJTKkE4RpURp3SZEGmAOd8t6YuPwNQ8MwjBcdPIYOW41Lyw718rGNBjV7BJPiJTMF/jUe58RK5ZN7ESzJa20KtsLpQaTKTDhWV6/2q7j0PJpcesp7OexFr5Dbq0SFPJip4Wf6B0uN1LZkZJJSUKWhJhrYDGJHTD6PURqRIk5pYNMxYcayddVjdoTaYD/AP253F1bY4nzKkkfJQfctaT7hZ77XjSzGcqg4dcZDJan2EiPEZfaqZj0BEh9PEww7ObaVFZdcTsaG3HUqUSk7EfEncNAAYZhnSvxPPLCph1FRMrU2mZzsObTew7CA8+7GjvuqXHScRTbij6uvdC3G0oSR8Syc2aVbK3pD6QW1vYU0HKnlPV0eZLN9dVMbiS2on/5KoclbRMTeVsfGUdbhp2PciAaOAoeneuWmGq01yvwTIX57yK6Nbt86slxEyIMgt2pLC32kJfaPzcbRqJKiNKjJRbC+AAAAAAAAAAAAq+lvyZYj7Bgfh0C0Cr6W/JliPsGB+HQKxup4xlKc7yOE9loAAElAAAAAAAAAAAAAAAAAAAAAAAAAAAAAAFXxH4wZv7ea/dkEWgVfEfjBm/t5r92QRaBXTXo4RlDTR+nOcwAASbgAAAAAAAAAAAAAAAACr2Hym0HsG3/ABFeLQKvYfKbQewbf8RXiuhvTwnKU9Jd5xnC0AACSgAAAAAAM91809utU9KbrBcflQo8+xOMbTkxa0Mp5chtxXEaEqUXkoPbZJ9+3+IyLVboq5JmusFrmde7X2FFlkOpi20adll7WJhHCcVxLKFXuNs2KXG1J4UPuNctaOLdZKNJdPgA5Iz7R/VjEbmNWUFRW3WIW+rdVlxyY6pUm1jJcdQb7brBNG22y2pBq6xzj8gySaE/CEhi3Rk1Ppcrx2DLmYueJY1m2SZO1LasZJ2Uti2TKVwGx1dLbS2nJRp7nVkpJcW6TLhV1OADj/TroYZFidNZYxdQsYt4lfi1hjFNLucnyG5TYNSllxE/Xuvtxq9o2220rbj801K8pK2+DhV+ca6J+sOOaZ2OK1ttURmIeU0N9i+IzMvsbarqI9etpTkVmxkRCktNOcs+FvkuJb27uLiPbsIAHMfSA6NmZa4ZzQ3snGMAivUcqvm0+Xx7OfDv6BTTiVyGkobaNuwbVsokE45HSnjMzQZluf7sOj1qsrPZLlfKxRWLP6lRNQOtvzpJWBpSylD0Xq6Y5tkZKTxJc5p8RHsaUfCHTIAOU8I6NestZLocXyadhbeK0Gf3eeonQZsp6wkLlSpjsaGbC2ENoIutJUt7mq8xtpbPbmnJYd0Zc8x6u05hzbagWvEMPyLH5xtSHjJyRPUg2VNbtFuguA+I1cJl3bEodNAA49jdD3UxjCsrx87zGDmXOl+NYdDPrUjl9o1rslxxTiuRulhfObJKySpfwjNvuIjl9Q+jPqpqbNzdVseNVcfNKfHZHHByOcT0G3qneYmOS24rS1xnD7uspW06jzkyZjqsAHKtF0ZdS8Yl0Go2PQ8Xi5hU5VIupdTNy67t406I9C6kpDttPS9IU+ltKFktMZCPJJvg/wD5R78N6OmqWA0uHZRTT8Um5viVpkDzsJ+VJZrLKBaSlvLY6wTK3I7iT5Kyc5DvehSNjJXGXTYAMNyfT7XHLlYlqDat4KjL8MvZNlAoY86WmsciPRlx1R3bBTCnDdJKzcJ9MRJblwcvYzWcPiPRuy2jynDcus7akflwbnJchvGmlO8tqVat8KWohqRutDZ+Sa18ClERq4S34C6KAByhinRP1FonMMXLuscWWO6a5Hh0rlyXz45thIacZcRuyW7RJbMlGeyiPbZKvOJXDujLnmPN5UibbUCzvNJ6TBI/KkPHwz4bc1Lri92i2ZM5LfCot1HsrdBbFv00ADlfNeivqFkmH5Nj8G4x5Ei50dY09YU7IfJCbFBr3dWZMmZMeUXlERr8/kCNz/ot6w5VqFDu1PYZeV0DIsfu6yxu7aYc2jiwksJlwIEYoq2mUum044byXEqcNRIcTtwrR10ADl2o6NOpcbJsYOfLxkqXGNTbrM0yWbGQcqVBsIk5vlmyccktPIcloLYnVJNKVK4iPZJ/Ou6MGpLlDjmn9zZYy3j+ncO4ax2wiy31zLZ2ZGfjs9cYUwSIqW0PqNZtuPqcURH5HeR9TAAw/SXQ3J8Ay7Er2ym064lBpxDxCQ3FccNSpjTqVqWgjbSRtGRHsZmSt/6pDcAAAAAAAAAAAAAFX0t+TLEfYMD8OgZFot05dDNYcil6eSbZ7DM/rZrtZOxXIzbjy0TG1m2tppZKNp9XGlRElCzXskzNCSGu6W/JliPsGB+HQKxup4xlKc7yOE9loAAElAAAAAAAAAAAAAAAAAAAAAAAAAAAAAAFXxH4wZv7ea/dkEWgVfEfjBm/t5r92QRaBXTXo4RlDTR+nOcwAASbgAAAAAAAAAAAAAAAADOs8wLBc81IxJjOcLosibrKu1nQkW1czLTFkpfryS80TqVcDhbnspOxlv5xooq9h8ptB7Bt/wARXiuhvTwnKU9J6c4zh6PF7gPhl4xvAfH/AAs6v1Tt7sxntHkbbcrrPDzeDbu4eLYR8LRzSGtprvHK7SvD4tTkrhvXUBijioj2az86pLZI4XjP0rIzFwASUU+bo5pDZU1JjljpXh8qpxpwnqWA/RxVx6xZeZUZs0cLJl6UERiQ8XuA+GXjG8B8f8LOr9U7e7MZ7R5G23K6zw83g27uHi2FgABT4WjmkNbTXeOV2leHxanJXDeuoDFHFRHs1n51SWyRwvGfpWRmE3RzSGypqTHLHSvD5VTjThPUsB+jirj1jhd5KjNmjhZMvSgiMXAAFf8AF7gPhl4xvAfH/Czq/VO3uzGe0eRttyus8PN4Nu7h4thHwtHNIa2mu8crtK8Pi1OSuG9dQGKOKiPZrPzqktkjheM/SsjMXAAFPm6OaQ2VNSY5Y6V4fKqcacJ6lgP0cVcesWXmVGbNHCyZelBEYkPF7gPhl4xvAfH/AAs6v1Tt7sxntHkbbcrrPDzeDbu4eLYWAAFPhaOaQ1tNd45XaV4fFqclcN66gMUcVEezWfnVJbJHC8Z+lZGYTdHNIbKmpMcsdK8PlVONOE9SwH6OKuPWLLzKjNmjhZMvSgiMXAAFf8XuA+GXjG8B8f8ACzq/VO3uzGe0eRttyus8PN4Nu7h4thHwtHNIa2mu8crtK8Pi1OSuG9dQGKOKiPZrPzqktkjheM/SsjMXAAFPm6OaQ2VNSY5Y6V4fKqcacJ6lgP0cVcesWXmVGbNHCyZelBEYkPF7gPhl4xvAfH/Czq/VO3uzGe0eRttyus8PN4Nu7h4thYAAU+Fo5pDW013jldpXh8WpyVw3rqAxRxUR7NZ+dUlskcLxn6VkZhN0c0hsqakxyx0rw+VU404T1LAfo4q49YsvMqM2aOFky9KCIxcAAV/xe4D4ZeMbwHx/ws6v1Tt7sxntHkbbcrrPDzeDbu4eLYR8LRzSGtprvHK7SvD4tTkrhvXUBijioj2az86pLZI4XjP0rIzFwABT5ujmkNlTUmOWOleHyqnGnCepYD9HFXHrFl5lRmzRwsmXpQRGJDxe4D4ZeMbwHx/ws6v1Tt7sxntHkbbcrrPDzeDbu4eLYWAAFPhaOaQ1tNd45XaV4fFqclcN66gMUcVEezWfnVJbJHC8Z+lZGYTdHNIbKmpMcsdK8PlVONOE9SwH6OKuPWLLzKjNmjhZMvSgiMXAAFf8XuA+GXjG8B8f8LOr9U7e7MZ7R5G23K6zw83g27uHi2EfC0c0hraa7xyu0rw+LU5K4b11AYo4qI9m4fnVJbJHC8Z+lZGYuAAKfN0c0hsqakxyx0rw+VU404T1LAfo4q49YsvMqM2aOFky9KCIxIeL3AfDLxjeA+P+FnV+qdvdmM9o8jbbldZ4ebwbd3DxbCwAAp8LRzSGtprvHK7SvD4tTkrhvXUBijioj2az86pLZI4XjP0rIzCbo5pDZU1JjljpXh8qpxpwnqWA/RxVx6xZeZUZs0cLJl6UERi4AAr/AIvcB8MvGN4D4/4WdX6p292Yz2jyNtuV1nh5vBt3cPFsI+Fo5pDW013jldpXh8WpyVw3rqAxRxUR7NZ+dUlskcLxn6VkZi4AAp83RzSGypqTHLHSvD5VTjThPUsB+jirj1iy8yozZo4WTL0oIjEh4vcB8MvGN4D4/wCFnV+qdvdmM9o8jbbldZ4ebwbd3DxbCwAAp8LRzSGtprvHK7SvD4tTkrhvXUBijioj2az86pLZI4XjP0rIzCbo5pDZU1JjljpXh8qpxpwnqWA/RxVx6xZeZUZs0cLJl6UERi4AA440o/8AjU0tp9QrLW7XeyPUrUG6tHbuSp5k41RFlOOG4fJiEpRrJJqMi5qlJ2JOyE7Dp/S35MsR9gwPw6BaBV9LfkyxH2DA/DoFY3U8YylOd5HCey0AACSgAAAAAAAAAAAAAAAAAAAAAAAAAAAAACr4j8YM39vNfuyCLQKviPxgzf281+7IItArpr0cIyhpo/TnOYAAJNwAAAAAAAAAAAAAAAABV7D5TaD2Db/iK8WgVew+U2g9g2/4ivFdDenhOUp6S7zjOFoAAElAAAAAAAAAAAAAAAAAAAAAAAAAAAAAAAAAAAAAAAAAAAAAAAAAAAAAAAAABV9LfkyxH2DA/DoFoFX0t+TLEfYMD8OgVjdTxjKU53kcJ7LQAAJKAAAAM6oOkJo/k2T2WI1GYEufVJmqfcfgyY8Nwoa+CXyJbraY8jkr8l3kuL5Z7krbYxoo5Eg9DnNfGJmMyHaVOF4pmMW+avWMavrFyPfyJ6SSzLeqJKDYhyGiIjU6zIVx8JlwoJZkQbPA6UGh1jj93lDeZuxq7HWY0qwXOqJ0RxEWQvgjykNPMpcejuKIyQ+2lTSuFWyj4T29K+kdo81jlvlD+SzWYtHaNUs2O7ST0TinO8PJYbhKZKS8pwlpNvltqJaT4k8Rd4wmo6H+fnp1leOWqcdj3NpT1FBCkvZff3nPYhyUvOOOuT1KRGQvbyIrDBk2fFu8slbIt+Y9HLUKwzTJdQcatMf7RPLKHKaGHLkPNsv9RhHGejynEsrNglktfCtCXdvJM0n3kA+7vSxtbmvgrwLTmDZzrXPpODQWrW8erWTUywt45Lyihuusnsg0mybRqSruM9yPazY50jYUaJl7OrdLExe1wy3iU8tinmSLxmY9KZQ7HRENEVqRIdUThEbKY/GRl3Eou8Z8voo5TlkauiamQMIt4Lmp8zNreqd5kyG7BejONpjkh5gidcStST8tKUnw8W5HskoUuhfltBhc/TXErGmbxbHc4RmWEQ491Pp5CGnOM5NdJlQ0c6OklOuG1IaU4siNJGjYtjDeF9IjSIsapMsYyaVLhZFMer69mHTzpM1ySyaifaXDaZVIaUybaydJxtPK4T5nDsP1T9IbR2/gtWVPmKZMZ+ilZK24mDJIlVsZ02nny3bL4KyMuH4R+ciMu8ZVj/Ry1DwVnBcwxKJiq8ox2beP2dXLyG3fgut2ne4pM6WUmS++2aGjNa0IS8fGfCxxESaJp5oFrbO00xm1q4NDDuJmFZBh11EyA5dYqIqXNW63KaZSy6pRb7/0SzR5KkmSz22MOi7PpH6M1FjUVc7L1peuoUOxZW3WTHWY0WWrgiuy3kNG3CQ6rdKDkqa4lEoi3MjIvUnXzSpeeP6at5FKXfR3Ho5toqZqozklponnIrcomuruyUtmSjYQ4p3bfyO4xgNr0Ncwk5JBlnJqbSstcex+nvWZGW31czEdrk8K3EQ4C2mrJDiNuFD62eWpPFuslGgrPF6NufVXSULVrFJVNitTMtlWF/Kpr+xS5kcUoxttRZtQ6hcQ3UKPfraHkqMiM+WRn3Bq2h2s9FrvhHh1j1Nc1kQ50uElm0r34jpky8pslkTqEcXESSM+HiJJmaDPiSoi0IZd0dNP8z0uwB3BsxapVdQtrB2vlVk51/rUR+S4+hbyHGG+Q4XNNJtpU6kuHclnvsWogAAAAAAAq+I/GDN/bzX7sgi0Cr4j8YM39vNfuyCLQK6a9HCMoaaP05zmAACTcAAAAAAAAAAAAAAAAAVew+U2g9g2/wCIrxaBV7D5TaD2Db/iK8V0N6eE5SnpLvOM4WgAASUAAAAAAAAAAAAAAAAAAAAAAAAAAAAAAAAAAAAAAAAAAAAAAAAAAAAAAAAAHNOY9Mvo/wDRp0oxRvUXNGnLzwer1MY9WcMqzeM4yDSXKIyJolER7KdUhJ7dxmfcOlhxHqd/8a+g3SPwDH8xjMv4bm82jgvOXNagnGZTvVkbKlRVGSHe8zMzQba1H8JR+YVjdTxjKU53kcJ7OyMWtp1/jFRe2dFKpJllAjy5FZLUk34LrjaVKYcNO6TWgzNJ7d26T2EoMVxTojdHqHi9PEy/o96QWF8xAjt2kyLg9c0zIlpbSTzjaOT5CFLJRkn5iMiEr+Sd0WP0adKv9m13/CJKNVAZV+Sd0WP0adKv9m13/CH5J3RY/Rp0q/2bXf8ACA1UBlX5J3RY/Rp0q/2bXf8ACH5J3RY/Rp0q/wBm13/CA1UBlX5J3RY/Rp0q/wBm13/CH5J3RY/Rp0q/2bXf8IDVQGVfkndFj9GnSr/Ztd/wh+Sd0WP0adKv9m13/CA1UBlX5J3RY/Rp0q/2bXf8IfkndFj9GnSr/Ztd/wAIDVQGVfkndFj9GnSr/Ztd/wAIfkndFj9GnSr/AGbXf8IDVQGVfkndFj9GnSr/AGbXf8IfkndFj9GnSr/Ztd/wgNVAZV+Sd0WP0adKv9m13/CH5J3RY/Rp0q/2bXf8IDVQGVfkndFj9GnSr/Ztd/wh+Sd0WP0adKv9m13/AAgLbiPxgzf281+7IItAz/STDcQwJ3McZwXFKfHKePkCFs19TBahxm1LrYSlGlppKUkZqMzMyLvMzMaAK6a9HCMoaaP05zmAACTcAAAAAAAAAAAAAAAAAVew+U2g9g2/4ivFoFXsPlNoPYNv+IrxXQ3p4TlKeku84zhaAABJQAAAAAAAAAAAAAAAAAAAAAAAAAAAAAAAAAAAAAAAAAAAAAAAAAAAAAAAAAVfS35MsR9gwPw6BaBV9LfkyxH2DA/DoFY3U8YylOd5HCey0AACSgAAAAAz2n1+0nvslk4nV5M87NjFKNLq6uY3DlnG/wDyExZa2ijy1td5LQw4tSTSojIuE9g0IBlmD9J7Q/UR5trGM0cNL9KeRRnrCpm1zEqtSSTXJYdlMttvob40k4balcsz2Xwn3D5MdKfQt3H5mTO5jKhwIEyvhP8AX6OwiPEqc4luG4lh5hLq2HlrIkPpSbR7KPj2SoyDWAGLZn0lauLhEPKNL6RGTzpmWRcOOvuHJdCcSc65wGUgnoq32uHdKtjYM1JURluRkZ/5T9I1NHOzOn1voqrEJ2GFWuPLprWRdxpaJ+6YzbJ9UYfckqcSaCjpYUpRmjg4jVsQbUAzhzpDaSoxysyhOQzno1xYuVESIxST3bFU1viN1hUBDJym1tkhSnEraSaElurhLvH+0PSG0eyZVUmizApXbdZZXMAygSkk9DgOoalukamyIuBbiC2PZSt90kotzAaMAzC26S2i1JV0F1Py57qOSQGraE+xUTX0tQHFJSmXK5bKupsbrSRuyOWgj33UWx7exfSA0lRnqtNCyhxy+Q8UVSGqyW5FKUcfrCYvW0tHG6ybJk4THM5ppMjJPeQDQwGdaGa24/rziUvMMcpbysixbWZWE1bVkiG6s2HVI4yJ5tHERkncyTxcCt0KMlpUktFAAAAAAABV8R+MGb+3mv3ZBFoFXxH4wZv7ea/dkEWgV016OEZQ00fpznMAAEm4AAAAAAAAAAAAAAAAAq9h8ptB7Bt/xFeLQKvYfKbQewbf8RXiuhvTwnKU9Jd5xnC0AACSgAAAAAAAAAAAAAAAAAAAAAAAAAAAAAAAAAAAAAAAAAAAAAAAAAAAAAAAAAq+lvyZYj7Bgfh0C0Cr6W/JliPsGB+HQKxup4xlKc7yOE9loAAElAAAB+VoJxCkK32URkex945fq+jZqDAjYnjN9Lo14vpZNtrigmV8l92zuHZMaUy01JjLZS2xwImOcSkPPKdUhB7N7mQ6iABxHpH0ZtUdTdEdOce1QTBxGqotLpWNRmGSlJuDlWEVppw5bDrbZReQlHDwJW4pxR7mbRFwHLRuh1n8vE34dizjcK6O2xM+c9mV/fHJr6mwalPGt6w4iZNezvLjNMklBnsbyiV5HYwAOZ8s6LN7mDeUVt6nFrOpyPVGuzJ2DPJbzL1Ywywh1h5tTJpU4rlK2Qe6DIy3UXftVrPoU5LTUmY6facTaCtwiTldfnWK1zNjMq3oc9twlS69b0NBOMRnCT/RPtOKcZNRETZpQST7BABzHQ9HHUHDfA/N8Vg4wWV0d7a2c+rnZRczYb7M9kmVmqymFIkvSEE20rmKZQleyk8DW/EKXpjoPrHJxLBczrqynh39bVZhjdrXX5yatLTVnYc1MtltLDqlcJsIUlpXASkL7nC7jHaAAOM7foU5o9W4uy1JqLZ7wErsIyGK/mN7UQWkxlGapCGq42zsEKS66Rx3jZI9knzE7mLTK6LubwekTB1Vwd+kxSIdhCeubemyCyjyruujxTZTXz6pxDsSUZGfkyechaSMj4DUndXUYAMu6PWnuYaW4hZ4dlaaZxpu+s59bLr5rrypEaVKckEbzbjLZMuJ5vCaUqdI+Hfi79i1EAAAAAAAGA5n019GdLtcZWhersuZhVguNGm1FxaoSmrtI7yPhpfSo+TwupebUbxIRuyZ8feRANWxH4wZv7ea/dkEWgVHA50KztMwsa6WxKiSrlh5h9hwnG3W1VcE0qSou5RGRkZGXcYtwrpr0cIyhpo/TnOYAAJNwAAAAAAAAAAAAAAAABV7D5TaD2Db/iK8VexscrscryOLFzWzrYtbOZix48WPDUkknDjumZm6wtRma3V/1tttu4eRyoyN2zj3Lmot+cyKw9Gac6vX+S06ptTiduq7HubLZ7mW5cPdtue/o6LwVUWVTVHnH8+8cP5cWk8TTP8A5iJ8p/j2ni1sBlE2RkldEfsLDVa5ixYzann33mKxDbTaS3UpSji7JIiIzMz7iIfGDaXNny+zdYbOXzo7cxvkIq3ONhe/A6W0Y90K2PZRdx7HsY1/4Kvyj+/pt/10/jP9fbXQGXcrMPrMv/8A9Wt/lQ5WYfWZf/8A6tb/ACof/Pr/ACj+/o/7Kfxn+vtqIDLuVmH1mX//AOrW/wAqPJjZ5/lV4pup1GuuxIK1tTZzkOvMnniIy5MfaMW5pPvUs90kZcOyj4uHFXgKqaZqmuLI4/TMeLiqYpimbeX21wBEvUtk7DhxkZdbMuRVEbshDUQ3JRehwlMmgi/YSgx9+zpna/aXb8/q/L4Oz+Bjq+/9vfl83f8A1NvUOPVjHP6dFs4PeAiWaWyahzIy8utnnJSjNqQtqITkUvQ2SWSQZftpWYPUtk7DhxkZdbMuRVEbshDUQ3JRehwlMmgi/YSgxnVjGP7+jWnBLAPB2dM7X7S7fn9X5fB2fwMdX3/t78vm7/6m3qHwZpbJqHMjLy62eclKM2pC2ohORS9DZJZJBl+2lZjGrGOf0WzglgES9S2TsOHGRl1sy5FURuyENRDclF6HCUyaCL9hKDH37Omdr9pdvz+r8vg7P4GOr7/29+Xzd/8AU29QasY5/RbOD3gIlmlsmocyMvLrZ5yUozakLaiE5FL0NklkkGX7aVmD1LZOw4cZGXWzLkVRG7IQ1ENyUXocJTJoIv2EoP1jOrGMf39GtOCWAeDs6Z2v2l2/P6vy+Ds/gY6vv/b35fN3/wBTb1D4M0tk1DmRl5dbPOSlGbUhbUQnIpehskskgy/bSsxjVjHP6LZwSwCJepbJ2HDjIy62ZciqI3ZCGohuSi9DhKZNBF+wlBj79nTO1+0u35/V+Xwdn8DHV9/7e/L5u/8AqbeoNWMc/otnB7wESzS2TUOZGXl1s85KUZtSFtRCcil6GySySDL9tKzB6lsnYcOMjLrZlyKojdkIaiG5KL0OEpk0EX7CUGM6sYx/f0a04JYB4Ozpna/aXb8/q/L4Oz+Bjq+/9vfl83f/AFNvUPgzS2TUOZGXl1s85KUZtSFtRCcil6GySySDL9tKzGNWMc/otnBLAIl6lsnYcOMjLrZlyKojdkIaiG5KL0OEpk0EX7CUGPv2dM7X7S7fn9X5fB2fwMdX3/t78vm7/wCpt6g1Yxz+i2cHvARLNLZNQ5kZeXWzzkpRm1IW1EJyKXobJLJIMv20rMHqWydhw4yMutmXIqiN2QhqIbkovQ4SmTQRfsJQYzqxjH9/RrTglgHg7Omdr9pdvz+r8vg7P4GOr7/29+Xzd/8AU29Q+DNLZNQ5kZeXWzzkpRm1IW1EJyKXobJLJIMv20rMY1Yxz+i2cEsAiXqWydhw4yMutmXIqiN2QhqIbkovQ4SmTQRfsJQY+/Z0ztftLt+f1fl8HZ/Ax1ff+3vy+bv/AKm3qDVjHP6LZwe8BEs0tk1DmRl5dbPOSlGbUhbUQnIpehskskgy/bSswepbJ2HDjIy62ZciqI3ZCGohuSi9DhKZNBF+wlBjOrGMf39GtOCWAeDs6Z2v2l2/P6vy+Ds/gY6vv/b35fN3/wBTb1D4M0tk1DmRl5dbPOSlGbUhbUQnIpehskskgy/bSsxjVjHP6LZwSwyrSXSHSaJo9XUcXS/Ema3KaeFIvYbdJGSxauqYQalymyRwvqMzMzNZKMxf3qWydhw4yMutmXIqiN2QhqIbkovQ4SmTQRfsJQYr+ltdM8CcRsu35/V/B6Ajs/gY6vv1dHl78vm7/wCpt6hWKY2VXn7xj/P8NJqnaR5e09n2m6OaQ2VNSY5Y6V4fKqcacJ6lgP0cVcesWXmVGbNHCyZelBEYkPF7gPhl4xvAfH/Czq/VO3uzGe0eRttyus8PN4Nu7h4th6maWyahzIy8utnnJSjNqQtqITkUvQ2SWSQZftpWYPUtk7DhxkZdbMuRVEbshDUQ3JRehwlMmgi/YSgxPVjGP7+m+tOCFhaOaQ1tNd45XaV4fFqclcN66gMUcVEezWfnVJbJHC8Z+lZGYTdHNIbKmpMcsdK8PlVONOE9SwH6OKuPWLLzKjNmjhZMvSgiMWHs6Z2v2l2/P6vy+Ds/gY6vv/b35fN3/wBTb1D4M0tk1DmRl5dbPOSlGbUhbUQnIpehskskgy/bSsxjVjHP6LZweXxe4D4ZeMbwHx/ws6v1Tt7sxntHkbbcrrPDzeDbu4eLYR8LRzSGtprvHK7SvD4tTkrhvXUBijioj2az86pLZI4XjP0rIzE09S2TsOHGRl1sy5FURuyENRDclF6HCUyaCL9hKDH37Omdr9pdvz+r8vg7P4GOr7/29+Xzd/8AU29QasY5/RbOCvTdHNIbKmpMcsdK8PlVONOE9SwH6OKuPWLLzKjNmjhZMvSgiMSHi9wHwy8Y3gPj/hZ1fqnb3ZjPaPI225XWeHm8G3dw8Ww9TNLZNQ5kZeXWzzkpRm1IW1EJyKXobJLJIMv20rMHqWydhw4yMutmXIqiN2QhqIbkovQ4SmTQRfsJQYzqxjH9/RrTghYWjmkNbTXeOV2leHxanJXDeuoDFHFRHs1n51SWyRwvGfpWRmE3RzSGypqTHLHSvD5VTjThPUsB+jirj1iy8yozZo4WTL0oIjFh7Omdr9pdvz+r8vg7P4GOr7/29+Xzd/8AU29Q+DNLZNQ5kZeXWzzkpRm1IW1EJyKXobJLJIMv20rMY1Yxz+i2cHl8XuA+GXjG8B8f8LOr9U7e7MZ7R5G23K6zw83g27uHi2EfC0c0hraa7xyu0rw+LU5K4b11AYo4qI9ms/OqS2SOF4z9KyMxNPUtk7DhxkZdbMuRVEbshDUQ3JRehwlMmgi/YSgx9+zpna/aXb8/q/L4Oz+Bjq+/9vfl83f/AFNvUGrGOf0Wzgr03RzSGypqTHLHSvD5VTjThPUsB+jirj1iy8yozZo4WTL0oIjEh4vcB8MvGN4D4/4WdX6p292Yz2jyNtuV1nh5vBt3cPFsPUzS2TUOZGXl1s85KUZtSFtRCcil6GySySDL9tKzB6lsnYcOMjLrZlyKojdkIaiG5KL0OEpk0EX7CUGM6sYx/f0a04IWFo5pDW013jldpXh8WpyVw3rqAxRxUR7Nw+81SWyRwvGfpWRmE3RzSGypqTHLHSvD5VTjThPUsB+jirj1iy8yozZo4WTL0oIjFh7Omdr9pdvz+r8vg7P4GOr7/wBvfl83f/U29Q+DNLZNQ5kZeXWzzkpRm1IW1EJyKXobJLJIMv20rMY1Yxz+i2cHl8XuA+GXjG8B8f8ACzq/VO3uzGe0eRttyus8PN4Nu7h4thHwtHNIa2mu8crtK8Pi1OSuG9dQGKOKiPZrPzqktkjheM/SsjMTT1LZOw4cZGXWzLkVRG7IQ1ENyUXocJTJoIv2EoMffs6Z2v2l2/P6vy+Ds/gY6vv/AG9+Xzd/9Tb1Bqxjn9Fs4K9N0c0hsqakxyx0rw+VU404T1LAfo4q49YsvMqM2aOFky9KCIxzpq9/8dWnvSG6RlhrbrNcnNpkRYcGux6ojFBOQ2y0XEufKSfMfUbinCLg4FJbS0njMk7F1KzS2TUOZGXl1s85KUZtSFtRCcil6GySySDL9tKzB6lsnYcOMjLrZlyKojdkIaiG5KL0OEpk0EX7CUGM6sYx/f0a04KtpHiOM4E1k2HYbRxKelqbdiPCgxGyQ0y2VZCPYiL1mZmfnMzMz3MxfxS8TgylZrmdim6mIjouGmzgEhnkLV2bCPmGZt83i7yLuWSe4u7z7y0FcypvW6SXaWlr2gxJmofktsJRGJpbKeUXKaR8Ln7lxbnshXeK6Wi2ryn2jKGlFVkece85p4AAc6oAAAAAAAAAAAAAAAAMua+OGZ+12P3bDHsdWbbS3EtqWaUmokp86ti8xesRVjMdpsxynrlLerRMsWZDDsWmlyW3G+oxWzMltNqT8NtZbb77pHyVmFYiU3CXWZEmQ62t1tk8dsCWtCDSS1Enk7mRGtBGfzGpPpIfQURM0U2YRlDyKpsqm3Gc3DGNaq3uV5nkBR9QpEqvyPTvKZVxjTt7KtHKqfHcbS0iSbqyYjyDQp0zjxo8cm09xk6XC4en9Gqvxyr12mOyrmWxcWmm+LyIUKRdyOGU2TK0vraiLd5a0o4Wy3SgybNatuE3FcXTvhLG/MeT/wC2rH/gDwljfmPJ/wDbVj/wCUaGYmJlvOkifKEuAiPCWN+Y8n/21Y/8A/cWqus6lFXMxbOoo0kRzpciM7EkyC//AKGUOJStG/8AWc2LYj2R3nxJrVMURrV+UJxE1TZT5y/EKFO1BnO1dXIdjUEZw2rGxaUaVyVkeyo0dReb0LcL4PelPlbmjUq+vg1UFitrYjUaLGbS0yy0kkobQRbEREXmIK+vg1UFitrYjUaLGbS0yy0kkobQRbEREXmIegeR4jxE6ebI8oj0j/e70tDoY0UfyAADmWAAAAAAAAAAAAAAAAAAAAAAAAAAAAAAAAAAAAAAAABCZvkvgbhl7l3UuudiVsmw6vzOXzuU2pfBxbHw78O2+x7b+YxNioawwZtnpNmdbWw35cuVQWDLDDDZuOOuKjrJKEpTualGZkREXeZmAr7mvuIY5HpIOojiqm+soUWXNjVMOfbwazrCuFo5M1qKluO2pW5JckEySuFWxeSe067q/p8zmqsAeuZDdsjiSpxVbKKCTqW+apg53L6rzybI3DY5vNJBcXDt3jD870d1M1mh19pS2chigm0Nb1CPaZDe0DlZJZVxutyKhppDcsndkkZy/Ka2/wC0si4TviNNdT2ZeWYPFdxhvCctl2c+TbOS5Tls2c1pRLjIik2louFxXET5yD8kuHkkZ8ZBPRekNpPMqLO7ZvLImKtbKFtOUFg3Jl85RpYXDjqYJ6ah1SVE2uMhxLhpPgNWxit4J0gtJqXSHArKTkUuQm0pUNRI0CnnTZbrsRptEpoozDK3ua0e/G2aOMiSszLZKjKFybSHWbP8Br8ay1nE4b2Iy6+RSRqXJrWGqyVGQttbj9iw0zIgcxCy4UMNvG2pPe48lRoKj6Y6a6q4Hj2kc3AsVoLG2KnuLKW3PurRVehUtEPgS7YvtynidNJcW/KSlZtrQlttJ7lSLdnPGO7Sb8cJ7NPvOk1C63lETBcYO/TjeP1uTImSHJcODOhSVOcfKklEcaNaW0EpCSUfMUakmaOBak7ahXGhK9tuIiMcx3elGWaWYFk8c0HkUS1wqBjxLrIcuRPXaIfkfBiMMObMKOWZm4bhcskbrLh3WXTbRGTSCMtjJJf/APBNu/YAAAAAAAAAAAAAAAAAAAAAAAAAAAAAKviPxgzf281+7IImXu1+3YfJ5XZfVJPWd/h9Y42eTt6uHn7+vhENiPxgzf281+7IIkpLMNWV10hdmtEpFdNQ1DI/JebU5GNbpl6UGltJf5pi9d/lHxSpu8+6WAAEFQAAAAAAAAAAAAAAAAR1WzManXC5NkmU29NSuO0R98Vvq7KTaP1mtK3P8HCERYfKbQewbf8AEV499F2R2pkXZvN6x2kjtDj83WOpxtuH1cnk/wDnceCw+U2g9g2/4ivHRRf5T8UqrvOM1oAAHOqAAAAAAAAAAAAAAAAAAAAAAAAAAAAAAAAAAAAAAAAAAAAAAAAAAAAAAAAAKvpb8mWI+wYH4dAtAq+lvyZYj7Bgfh0CsbqeMZSnO8jhPZaAABJQAAAAHMOHaqZ/Mx241hstVW3H1O5NFiadSoEFDa3q5bqWmYjiUolm8lLBLd43Hkq5ijSlsuHbPM3171qwDT20tq3U9/KZeQ6QWmoEexVWQCbxywYJk2UMJajpSuO4chZITJ5q94x+WvyiAdwgOFNfMn1IuNIdeNOsn1Hs7BiDiVBesyUw4DTjSZxrTJgkSI5JVGM2z24yN3hWZG4Y9TdzlmlFrZad6aXsChai5DgWOonxsbqmX1xJTCikcaWYzbSlmW5pPg4WzPyUkndJh3CA401E1H10xWwz5il1os1t4HkuI1EQptLVu9fanpjolHL4IyNzUbqllyeTwr83k+QVU1JmZpnkul01zOPTapu4vrOdHDZy5qNDYtY3ZDkhKJpxoa2fJN1REpEXv4E7p33UA72Afz/wbUjJ8FwHIz02wo8Gtci1TjYnY4Viqa9xWIKS1wLOGc0mIJuyiaQ6hbjaGv6ct0qUR76NieretOUo06wfIs0kYy/b2+TMz8jj9hy5khirM+RGf6ucqC1IURmUhLREZKYcJKWvMkOugHFmC9I/VGzxWFdW+oUSW3I0ryHJUzkQojbEifFnqaZkoMkbcJN8Hk78BkZGojM9x4LrpF9IGZkcZjHn7Pgx/FMUt3iQrHYlbZP2Jnz3LJ2wfafQ0o0qaaKESDJwl7mrdKCDuIByVG1k1egdJxzGcyyS1iYTf38jHMcepI1Ta1C3Uw+Z1eQtv/roE9txKlGbxusrLiLloIiUL70KWb0tCYc3IcyucklzLi3dVJtDYN1JlPfSZEpppvi3NJrM1cR7qPYyTwpIN4AAAAAAFXxH4wZv7ea/dkESUl6GnK66OusWuUuumramEXkstpcjEtoz9KzU2ov8oxG4j8YM39vNfuyCJl7tft2HyeV2X1ST1nf4fWONnk7erh5+/r4Reu/yj4pU3efd7wABBUAAAAAAAAAAAAAAAAEdVvTHZ1wiTWpitszUojukXfKb6uyo3T9ZLUtv/BshEWHym0HsG3/EV4l6tmY1OuFybJMpt6alcdoj74rfV2Um0frNaVuf4OEIiw+U2g9g2/4ivF6L/KfilXd5xmtAAAgqAAAAAAAAAAAAAAAAAAAAAAAAAAAAAAAAAAAAAAAAAAAAAAAAAAAAAAAAAKvpb8mWI+wYH4dAtAwrT3IOku1gONN1WkmmUmEinhpjPSNRLBl1xomUcCltppFkhRp2M0ktREZmRKVtudY3U8Y7pzfjhPZuoDKvCPpT/U3pV95dj7iDwj6U/wBTelX3l2PuISUaqAyrwj6U/wBTelX3l2PuIPCPpT/U3pV95dj7iAXOv0408qcun5/VYHjsPKLRBNTruPVsNz5SCJJEl2QlJOLLZCC2Uo/gl6CHkgaRaT1VdfU9XphiUOBlKlrvYseljNs2ql78ZykJQSXzVxK34yVvue/nFX8I+lP9TelX3l2PuIPCPpT/AFN6VfeXY+4gF2n4Bgdoixbs8JoZibeMzCsEv1rLhTI7RmbTT3Ek+YhBmfClW5J3PYiH6fwPB5UtdhKwyielOyI0tb7lcypxT8cto7pqNO5raLuQrzo/q7Cj+EfSn+pvSr7y7H3EHhH0p/qb0q+8ux9xALzNwXCbFc9yww6jlKtH48qcp6vZWcp5jh5Dju6fLW3wp4FK3NPCW22xB4CYR17tTwNo+udodr9Y7OZ5vXuXyutcfDvzuX5HM34uHu327hRvCPpT/U3pV95dj7iDwj6U/wBTelX3l2PuIBcbTTTTi87b7b0/xuw8JW2mbrrVUw72m22WzaJPEk+clP8AVJe5F82w+M/SrTC1xeuwiy05xeVj1QptddUvU8dcOEpvflqZYNBobNO58JpItvmFU8I+lP8AU3pV95dj7iDwj6U/1N6VfeXY+4gHsx3o76SUuIUOGWuG1WURMZVJXWP5DXRpr8Y31qW4aFKbIkb8Zp8ki3SREe4sU7S/TSzsqK5stO8Zl2GLoJujlv1Edx6rSW2yYqzRxMEXCXcgy8xegVHwj6U/1N6VfeXY+4g8I+lP9TelX3l2PuIBcE6Z6cIzRWpCNP8AG05atrkqvyqmCsTb4eHgOTwc3h4SItuLbbuHrxrCcMwvtHwOxGlou15jljYdmQGovXJa/hvvctJcxxWxbrVuo9u8xRPCPpT/AFN6VfeXY+4g8I+lP9TelX3l2PuIBqoDKvCPpT/U3pV95dj7iDwj6U/1N6VfeXY+4gGqgMq8I+lP9TelX3l2PuIcE616wdOLGem5Moej7Qs2N7Mq62Tk+JVV7JyGhYfNBobVIXKiw0V6lx0RjUaODcjSrmmazSQf0jxH4wZv7ea/dkESUlmGrK66QuzWiUiumoahkfkvNqcjGt0y9KDS2kv80xUNFpeZz66/maiU1bU5K9ZxlWcKulqkxmH+y4PEltxSUmov/Hce5bqIuI7fJehpyuujrrFrlLrpq2phF5LLaXIxLaM/Ss1NqL/KMdFd/lHxSpu8+6WAAHOqAAAAAAAAAAAAAAAACGouyO1Mi7N5vWO0kdocfm6x1ONtw+rk8n/zuPBYfKbQewbf8RXiXq3pjs64RJrUxW2ZqUR3SLvlN9XZUbp+slqW3/g2QiLD5TaD2Db/AIivHRRf5T8UqrvOM1oAAHOqAAAAAAAAAAAAyLpbY/b5V0cs5x2hqbCznz4CGmYle045IdPnNmZNpb8vfYjPdPeW2/zANdAcJ9I/Qy/ZzuJVYtiEWBiL2NNx8YRT6byb56qyByYpyRKjHGlRmqyYpS2XOuyFJQfAricLZW8DrfjKaLJb+bqXg1xZZnO1IwtdHlfYbpMJpCnVyEsFYcK2W0k+lziiE7xqcUTnCZf0iQ/oUA4sk0WaRtQY2HsYFlapjGt68nXPRRSlVrdY9Fc5crrfByVo4jJKkpWakK+ESS7xXtBdKdS67K7aVk9fkULJG8byCHlMmlweRVv20p97/p1O3MqwJi1klsa47jLRobSa0qWxxESg7fyXKMew6ocvcnto9dAbcaZN55WxG44skNoIvOpSlqSkkkRmZmREILJtYNNsOzzGNMslyqPByfM+f2HXrbcUuZyU8TmykpNCNi/tmnfzFuY4AxzRvJS0VzXA7HRU8ioamwxS1bty07sKObbvNyklOJyjeJaXZLcdJpckQ0GT6FERqdVvtoupmEa6aiZFnWqunujkBuFia6mLhCbawm09khmqUUpZxK465fEmQta2SI3Gt0pItgHdgDk+2rqbItY38w1Z0QzLIpNxHx6fgciFRS1SKQyLeSwctPAmsWh4+N7nOsE6jyf6TbgHnqcO4NQ8pVeaV5NI1icvbt7H80iVMlqIxWvRnEwjes90MLjIQpDfUzccUlxJL5G5cZB1wIrJcox7Dqhy9ye2j10Btxpk3nlbEbjiyQ2gi86lKWpKSSRGZmZEQ/nFB06y3F+jlqTPuaW0qHE4NCr7+A1g8vHSm3BTEG489MlT3Ds5xf0hKmsoJpZLIye8xFbtQNG42R1Wps7C9DbGPp85MxGYmhdxF5tyVbxpqjtpseApnmP7xVNNrdaQon+BfCbhbqMP6CCuZLqFh+IWtbSZFb9Um27Mt+E11d1zmtxWua+e6EmSeFHfsZkZ+Ytz7hxzSaaZ7J6TEi97Im1khWWRbKhtGdOZqnm8bTBQluIdwuY1GhQyIltLgKZN4nd18lfFxCOwLTa6g32HIc0hyeFmdexmSM3ul0UlLVjPfjuEw8qYaOXM5pGXLWhSySR8sjSfkAOlUdMLo4u6QxdeG9SW1YNNsSqWLQqybuqWbht8o2OTz0nxEfeaCLbY99jIxsLDzUlluQyribdSS0Httuky3I+8fytptAtbEaRRNPZWluRlj8HTeNl7DDldI5yclcgNV7kEmDQZk8lKHHTR3LI17knzmNvodMdTD6Tr11f18+Napy2JY1twxgcuU+dAiEhPVe3VTm4saJ3ONrhG2p3m7uE0vj4wHc4Dg/RfTnNsS1ZzyugYbk9hByCmyBdlkL2LSaDIYUhyQamIiphulXXaj4lGxIJxS2yM91oQfCdS02w7UPDNMctwFrSDtjE35uON2V8rTa3q5Fg2pSkzXJGN8fBNkMJQ1xusIWy+RoNwpHCpID+joD+dOGYwxi1Rppjup2E5bY4HFzvKygY5c44ZTHSU1zK2SVSwwguUgjdWXJYS2wayUaWtjNMIzgWaZbpRpLYLxqXOxBWK3saJHdwmZli4Fy7PM2XUx4kxnq8o2tyanOLNpo0OEbiOZxKD+mICEwmBa1eG0VbezpM2xiVsZiXJkoJDzzyWkktbhJW4RLMyMz2Wst9/KV5zmwAAAAAAAAAAAVfS35MsR9gwPw6BaBV9LfkyxH2DA/DoFY3U8YylOd5HCey0AACSgAAAAAAAAAAAAAAAAAAAAAAAAAAA+LMSLHdffjxmmnJSycfWhBJU6skkklKMvhHwpSnc/mSReYh9gAVfEfjBm/t5r92QRMvdr9uw+Tyuy+qSes7/AA+scbPJ29XDz9/XwiGxH4wZv7ea/dkESUlmGrK66QuzWiUiumoahkfkvNqcjGt0y9KDS2kv80xeu/yj4pU3efdLAACCoAAAAAAAAAAAAAAAAI6rZmNTrhcmyTKbempXHaI++K31dlJtH6zWlbn+DhCIsPlNoPYNv+Irx76LsjtTIuzeb1jtJHaHH5usdTjbcPq5PJ/87inaj4teZXn2Mw6HUjI8NeZp7d1cukYrnXXk86AXLUU6LJQSdzI90pSrci8rbcj6KL/KfilVd592lAMq8Teov6WOqv2bivuYPE3qL+ljqr9m4r7mHOq1UBlXib1F/Sx1V+zcV9zB4m9Rf0sdVfs3FfcwDVQGVeJvUX9LHVX7NxX3MHib1F/Sx1V+zcV9zANVAZV4m9Rf0sdVfs3FfcweJvUX9LHVX7NxX3MA1UBlXib1F/Sx1V+zcV9zB4m9Rf0sdVfs3FfcwDVRH3eP0OSxEV+R0lfaxWpDMtDE2Mh9tL7LhONOklZGRLQtKVpV50qSRlsZDOvE3qL+ljqr9m4r7mDxN6i/pY6q/ZuK+5gGqgMq8Teov6WOqv2bivuYPE3qL+ljqr9m4r7mAaqAyrxN6i/pY6q/ZuK+5g8Teov6WOqv2bivuYBqoDKvE3qL+ljqr9m4r7mDxN6i/pY6q/ZuK+5gGkXNJTZHWSKTIaiFaV0tJIfiTY6H2XUkZGRLQsjSotyI+8vOQ9iUpSkkpIiIi2Ii8xEMr8Teov6WOqv2bivuYPE3qL+ljqr9m4r7mAaqAyrxN6i/pY6q/ZuK+5g8Teov6WOqv2bivuYBqoDKvE3qL+ljqr9m4r7mDxN6i/pY6q/ZuK+5gGqgMq8Teov6WOqv2bivuYPE3qL+ljqr9m4r7mAXXNNPcB1IrG6TUTB8fymuadJ9uJdVjM5lDpEZEskPJUklERmW+2/eYl66trqevjVNRAjwYMNpLEaNGaS00y0ktkoQhJESUkRERERbERDM/E3qL+ljqr9m4r7mDxN6i/pY6q/ZuK+5gGqgMq8Teov6WOqv2bivuYPE3qL+ljqr9m4r7mAaqAyrxN6i/pY6q/ZuK+5g8Teov6WOqv2bivuYBqoDKvE3qL+ljqr9m4r7mDxN6i/pY6q/ZuK+5gGqgMq8Teov6WOqv2bivuYPE3qL+ljqr9m4r7mAXTBdQsF1Ox5nK9PMuqcjqHzNKJlbLQ+3xERboUaTPhWW5bpPZReYyIfDS35MsR9gwPw6B/O/ou9ATpKw9bLfX6/1RvtKqq3u5FommjOxXLixjLkLdS1OajITAaIyURmgm1JJW5Ey3sW39ENLfkyxH2DA/DoFY3U8YylOd5HCey0AACSgAAAAAAAAAAAAAAAAAAAAAAAAAAAAACr4j8YM39vNfuyCJKS9DTlddHXWLXKXXTVtTCLyWW0uRiW0Z+lZqbUX+UYjcR+MGb+3mv3ZBEy92v27D5PK7L6pJ6zv8PrHGzydvVw8/f18IvXf5R8UqbvPu94AAgqAAAAAAAAAAAAAAAACOq3pjs64RJrUxW2ZqUR3SLvlN9XZUbp+slqW3/g2QiLD5TaD2Db/AIivEvVszGp1wuTZJlNvTUrjtEffFb6uyk2j9ZrStz/BwhEWHym0HsG3/EV4vRf5T8Uq7vOM1oAAEFQAAAAAAAAAAAAAAAAAAAAAAAAAAAAAAAAAAAAAAAAAAAAAAAAAAAAAAAABV9LfkyxH2DA/DoFoFX0t+TLEfYMD8OgVjdTxjKU53kcJ7LQAAJKAAAAAAAAAAAAAAAAAAAAAAAAAAAAAAKviPxgzf281+7IIkpLMNWV10hdmtEpFdNQ1DI/JebU5GNbpl6UGltJf5piNxH4wZv7ea/dkESUl6GnK66OusWuUuumramEXkstpcjEtoz9KzU2ov8ox0V3+UfFKm7z7pYAAc6oAAAAAAAAAAAAAAAAIai7I7UyLs3m9Y7SR2hx+brHU423D6uTyf/O48Fh8ptB7Bt/xFeJeremOzrhEmtTFbZmpRHdIu+U31dlRun6yWpbf+DZCIsPlNoPYNv8AiK8dFF/lPxSqu84zWgAAc6oAAAAAAAAAAAAAAAAAAAAAAAAAAAAAAAAAAAAAAAAAAAAAAAAAAAAAAAAAq+lvyZYj7Bgfh0C0Cr6W/JliPsGB+HQKxup4xlKc7yOE9loAAElAAAAAAAAAAAAAAAAAAAAAAAAAAAAAAFXxH4wZv7ea/dkETL3a/bsPk8rsvqknrO/w+scbPJ29XDz9/XwiGxH4wZv7ea/dkESUlmGrK66QuzWiUiumoahkfkvNqcjGt0y9KDS2kv8ANMXrv8o+KVN3n3SwAAgqAAAAAAAAAAAAAAAACOq2ZjU64XJskym3pqVx2iPvit9XZSbR+s1pW5/g4QiLD5TaD2Db/iK8e+i7I7UyLs3m9Y7SR2hx+brHU423D6uTyf8AzuPBYfKbQewbf8RXjoov8p+KVV3nGa0AADnVAAAAAAAAAAAAAAAAAAAAAAAAAAAAAAAAAAAAAAAAAAAAAAAAAAAAAAAAAFX0t+TLEfYMD8OgWgVfS35MsR9gwPw6BWN1PGMpTneRwnstAAAkoAAAAAMYkdKXApupGN6c4el69cub6fQTZ5MSY0WI/Ejuuvcl5xnkzDQtrlLJlw+Wo/KMj8kw2cBlJ9KTQtMTI7B3NHWomLV0m3nSXaic2y7CjrND8iI4pkkzm21JNKlRTdIjNJH3qLf1xekdo7KjWEsspkMNVc+BXSjlU86OaHZykpiLJLrKTUw6ai4X0kbJ/wBvuMBpYDGdSOkU1j9vXYnpnR12WZFLytvEZUewspFVEgy1w1y/LkJiv8ezaU7k2hWxrIjMjIyH+450jYUaJl7OrdLExe1wy3iU8tinmSLxmY9KZQ7HRENEVqRIdUThEbKY/GRl3Eou8BsoDN19IjSIsapMsYyaVLhZFMer69mHTzpM1ySyaifaXDaZVIaUybaydJxtPK4T5nDsP1T9IbR2/gtWVPmKZMZ+ilZK24mDJIlVsZ02nny3bL4KyMuH4R+ciMu8BowDNLPpH6M1FjUVc7L1peuoUOxZW3WTHWY0WWrgiuy3kNG3CQ6rdKDkqa4lEoi3MjIvUnXzSpeeP6at5FKXfR3Ho5toqZqozklponnIrcomuruyUtmSjYQ4p3bfyO4wGggM90O1notd8I8OseprmsiHOlwks2le/EdMmXlNksidQji4iSRnw8RJMzQZ8SVEWhAAAAAAAAq+I/GDN/bzX7sgiSkvQ05XXR11i1yl101bUwi8lltLkYltGfpWam1F/lGI3EfjBm/t5r92QRMvdr9uw+Tyuy+qSes7/D6xxs8nb1cPP39fCL13+UfFKm7z7veAAIKgAAAAAAAAAAAAAAAAjqt6Y7OuESa1MVtmalEd0i75TfV2VG6frJalt/4NkIiw+U2g9g2/4ivHtp58ft+9qnckhzJZSG5KICH0m9BjnHZSSVoI+JJKWlxZGZd/METMtK1/VynqmbGM5NjY9aOPxkvJN1pCpFfwqUgj3SR7HsZl37GL0Wa/KfilXd5xmuIDyN21U9ZPUzNnEXPjtpeeipeSbzaFfBUpG/ERH8xmWxg3bVT1k9TM2cRc+O2l56Kl5JvNoV8FSkb8REfzGZbGIKvWA8jdtVPWT1MzZxFz47aXnoqXkm82hXwVKRvxER/MZlsYN21U9ZPUzNnEXPjtpeeipeSbzaFfBUpG/ERH8xmWxgPWA8jdtVPWT1MzZxFz47aXnoqXkm82hXwVKRvxER/MZlsYN21U9ZPUzNnEXPjtpeeipeSbzaFfBUpG/ERH8xmWxgPWA8jdtVPWT1MzZxFz47aXnoqXkm82hXwVKRvxER/MZlsYN21U9ZPUzNnEXPjtpeeipeSbzaFfBUpG/ERH8xmWxgPWA8jdtVPWT1MzZxFz47aXnoqXkm82hXwVKRvxER/MZlsYN21U9ZPUzNnEXPjtpeeipeSbzaFfBUpG/ERH8xmWxgPWA8jdtVPWT1MzZxFz47aXnoqXkm82hXwVKRvxER/MZlsYN21U9ZPUzNnEXPjtpeeipeSbzaFfBUpG/ERH8xmWxgPWA8jdtVPWT1MzZxFz47aXnoqXkm82hXwVKRvxER/MZlsYN21U9ZPUzNnEXPjtpeeipeSbzaFfBUpG/ERH8xmWxgPWA8jdtVPWT1MzZxFz47aXnoqXkm82hXwVKRvxER/MZlsYN21U9ZPUzNnEXPjtpeeipeSbzaFfBUpG/ERH8xmWxgPWA8jdtVPWT1MzZxFz47aXnoqXkm82hXwVKRvxER/MZlsYN21U9ZPUzNnEXPjtpeeipeSbzaFfBUpG/ERH8xmWxgPWA8jdtVPWT1MzZxFz47aXnoqXkm82hXwVKRvxER/MZlsYN21U9ZPUzNnEXPjtpeeipeSbzaFfBUpG/ERH8xmWxgPWA8jdtVPWT1MzZxFz47aXnoqXkm82hXwVKRvxER/MZlsYN21U9ZPUzNnEXPjtpeeipeSbzaFfBUpG/ERH8xmWxgPWA8jdtVPWT1MzZxF2EdtLr0VLyTebQr4KlI34iI/mMy2MG7aqesnqZmziLnx20vPRUvJN5tCvgqUjfiIj+YzLYwHrAeRu2qnrJ6mZs4i58dtLz0VLyTebQr4KlI34iI/mMy2MG7aqesnqZmziLnx20vPRUvJN5tCvgqUjfiIj+YzLYwHrAeRu2qnrJ6mZs4i58dtLz0VLyTebQr4KlI34iI/mMy2MG7aqesnqZmziLnx20vPRUvJN5tCvgqUjfiIj+YzLYwHrAeRu2qnrJ6mZs4i58dtLz0VLyTebQr4KlI34iI/mMy2MG7aqesnqZmziLnx20vPRUvJN5tCvgqUjfiIj+YzLYwHrAeRu2qnrJ6mZs4i58dtLz0VLyTebQr4KlI34iI/mMy2MG7aqesnqZmziLnx20vPRUvJN5tCvgqUjfiIj+YzLYwHrAeRu2qnrJ6mZs4i58dtLz0VLyTebQr4KlI34iI/mMy2MG7aqesnqZmziLnx20vPRUvJN5tCvgqUjfiIj+YzLYwHrAeRu2qnrJ6mZs4i58dtLz0VLyTebQr4KlI34iI/mMy2MG7aqesnqZmziLnx20vPRUvJN5tCvgqUjfiIj+YzLYwHrFX0t+TLEfYMD8OgTrdtVPWT1MzZxFz47aXnoqXkm82hXwVKRvxER/MZlsYrGlNtVPYJi1MzZxFz4+PVzz0VLyTebQqOjhUpG/ERH8xmWxisbqeMZSnO8jhPZcgHkbtqp6yepmbOIufHbS89FS8k3m0K+CpSN+IiP5jMtjBu2qnrJ6mZs4i58dtLz0VLyTebQr4KlI34iI/mMy2MSUesB5G7aqesnqZmziLnx20vPRUvJN5tCvgqUjfiIj+YzLYwbtqp6yepmbOIufHbS89FS8k3m0K+CpSN+IiP5jMtjAesct4r0atV6W8wqhsrTFn8QwXJry2iTmZkhNlLh2DUkkNrY5HLacaVJ4TMnlksi4/6M/IPplu2qnrJ6mZs4i58dtLz0VLyTebQr4KlI34iI/mMy2MG7aqesnqZmziLnx20vPRUvJN5tCvgqUjfiIj+YzLYwHF0PoMZxD02yvT1qTRrfThVriON3E/Mb+xW/1s9icdiPqOLWtklDXG2w2+alFxJUgk8KtC1I0WlVlbqrkWR82TUZLhVPRQI9DWzLKwZmwkv8LiYzDClGROuNKSaSVtwmaiSRbjo9u2qnrJ6mZs4i58dtLz0VLyTebQr4KlI34iI/mMy2MG7aqesnqZmziLnx20vPRUvJN5tCvgqUjfiIj+YzLYwHK+K9FvIs00j0sgarUuP2NoWUrzfPK25Y57Mp+Sy/zGEtKQ4lZtqeaSSVmRETXwtyLfxF0L8toMLn6a4lY0zeLY7nCMywiHHup9PIQ05xnJrpMqGjnR0kp1w2pDSnFkRpI0bFsfWrdtVPWT1MzZxFz47aXnoqXkm82hXwVKRvxER/MZlsYN21U9ZPUzNnEXPjtpeeipeSbzaFfBUpG/ERH8xmWxgOb8f6OWoeCs4LmGJRMVXlGOzbx+zq5eQ278F1u073FJnSykyX32zQ0ZrWhCXj4z4WOIiTRNPNAtbZ2mmM2tXBoYdxMwrIMOuomQdbrFRFS5q3W5TTKWXVKLff+iWaPJUkyWe2x9lt21U9ZPUzNnEXPjtpeeipeSbzaFfBUpG/ERH8xmWxg3bVT1k9TM2cRc+O2l56Kl5JvNoV8FSkb8REfzGZbGA5LtehrmEnJIMs5NTaVlrj2P096zIy2+rmYjtcnhW4iHAW01ZIcRtwofWzy1J4t1ko0FZ4vRtz6q6ShatYpKpsVqZlsqwv5VNf2KXMjilGNtqLNqHULiG6hR79bQ8lRkRnyyM+7o1u2qnrJ6mZs4i58dtLz0VLyTebQr4KlI34iI/mMy2MG7aqesnqZmziLnx20vPRUvJN5tCvgqUjfiIj+YzLYwGc9HTT/M9LsAdwbMWqVXULawdr5VZOdf61EfkuPoW8hxhvkOFzTSbaVOpLh3JZ77FqI8jdtVPWT1MzZxFz47aXnoqXkm82hXwVKRvxER/MZlsYN21U9ZPUzNnEXPjtpeeipeSbzaFfBUpG/ERH8xmWxgPWA8jdtVPWT1MzZxFz47aXnoqXkm82hXwVKRvxER/MZlsYN21U9ZPUzNnEXPjtpeeipeSbzaFfBUpG/ERH8xmWxgPWA8jdtVPWT1MzZxFz47aXnoqXkm82hXwVKRvxER/MZlsYwnMOm7onplrnN0H1YsJOG2SWIsqst7MkFWWTLzZHxE8lRmwaVk6hRvJQj+iM+LvIgGs4j8YM39vNfuyCJKSzDVlddIXZrRKRXTUNQyPyXm1ORjW6ZelBpbSX+aYruAZDQW2S5ozVXlfNcctY0xCI8lDilR11kHgdIkme6FfMrzH8xiYdu6B3PIlAgo79yzVy5ClIdSbkVg3YxGhaSPdJOGaDIzLv5J+gdFd/ywj4pU3efdYAABzqgAAAAAAAAAAAAAAAApWNYPp3E1Gy7UKkomm8ssHI1ZdWJkfMdQ1GYW00R77cCULbPuL4RqHgVg+J1mvcTPYFFGYyC7xifDsLBJHzZDLEiDyUKPfbZPGrb/Exc6t6Y7OuESa1MVtmalEd0i75TfV2VG6frJalt/4NkIiw+U2g9g2/4ivF6L/KfilVd5xm9ELAMNrs1sdRoWPRGclt4bNfOskkfOfjtGZttqPfbZJme3cELAMNrs1sdRoWPRGclt4bNfOskkfOfjtGZttqPfbZJme3cLAAgqr8LAMNrs1sdRoWPRGclt4bNfOskkfOfjtGZttqPfbZJme3cELAMNrs1sdRoWPRGclt4bNfOskkfOfjtGZttqPfbZJme3cLAACvwsAw2uzWx1GhY9EZyW3hs186ySR85+O0Zm22o99tkmZ7dwQsAw2uzWx1GhY9EZyW3hs186ySR85+O0Zm22o99tkmZ7dwsAAK/CwDDa7NbHUaFj0RnJbeGzXzrJJHzn47Rmbbaj322SZnt3BCwDDa7NbHUaFj0RnJbeGzXzrJJHzn47Rmbbaj322SZnt3CwAAr8LAMNrs1sdRoWPRGclt4bNfOskkfOfjtGZttqPfbZJme3cELAMNrs1sdRoWPRGclt4bNfOskkfOfjtGZttqPfbZJme3cLAACvwsAw2uzWx1GhY9EZyW3hs186ySR85+O0Zm22o99tkmZ7dwQsAw2uzWx1GhY9EZyW3hs186ySR85+O0Zm22o99tkmZ7dwsAAK/CwDDa7NbHUaFj0RnJbeGzXzrJJHzn47Rmbbaj322SZnt3BCwDDa7NbHUaFj0RnJbeGzXzrJJHzn47Rmbbaj322SZnt3CwAAr8LAMNrs1sdRoWPRGclt4bNfOskkfOfjtGZttqPfbZJme3cELAMNrs1sdRoWPRGclt4bNfOskkfOfjtGZttqPfbZJme3cLAACvwsAw2uzWx1GhY9EZyW3hs186ySR85+O0Zm22o99tkmZ7dwQsAw2uzWx1GhY9EZyW3hs186ySR85+O0Zm22o99tkmZ7dwsAAK/CwDDa7NbHUaFj0RnJbeGzXzrJJHzn47Rmbbaj322SZnt3BCwDDa7NbHUaFj0RnJbeGzXzrJJHzn47Rmbbaj322SZnt3CwAAr8LAMNrs1sdRoWPRGclt4bNfOskkfOfjtGZttqPfbZJme3cELAMNrs1sdRoWPRGclt4bNfOskkfOfjtGZttqPfbZJme3cLAACvwsAw2uzWx1GhY9EZyW3hs186ySR85+O0Zm22o99tkmZ7dwQsAw2uzWx1GhY9EZyW3hs186ySR85+O0Zm22o99tkmZ7dwsAAK/CwDDa7NbHUaFj0RnJbeGzXzrJJHzn47Rmbbaj322SZnt3BCwDDa7NbHUaFj0RnJbeGzXzrJJHzn47Rmbbaj322SZnt3CwAAr8LAMNrs1sdRoWPRGclt4bNfOskkfOfjtGZttqPfbZJme3cELAMNrs1sdRoWPRGclt4bNfOskkfOfjtGZttqPfbZJme3cLAACvwsAw2uzWx1GhY9EZyW3hs186ySR85+O0Zm22o99tkmZ7dwQsAw2uzWx1GhY9EZyW3hs186ySR85+O0Zm22o99tkmZ7dwsAAK/CwDDa7NbHUaFj0RnJbeGzXzrJJHzn47Rmbbaj322SZnt3BCwDDa7NbHUaFj0RnJbeGzXzrJJHzn47Rmbbaj322SZnt3DIcZ1V1BjNqrYaVZnkeTZdfxa2FZzY1XDq62vkLbUSXWIqnFESEN8JLQ6tbjne4hHemju9NVGnuBYo5nUnFnshfx/wAILtN/lEWiedj89xs2oDfKU3Ml/wBEvZkjaR3J3dLjIB0tCwDDa7NbHUaFj0RnJbeGzXzrJJHzn47Rmbbaj322SZnt3BCwDDa7NbHUaFj0RnJbeGzXzrJJHzn47Rmbbaj322SZnt3DLovSIyewy1cOv0xjLxRvJY+L9suX3BJckSIjL7LzcUo5pUzu+ltZm8lSTIzJKyHzyzWS+yTTW3mYocvGrqvxORkU2RHdjyF1ktl1TaYakvMLbdJbjEpClcKTJLR7cJqI0hqsLAMNrs1sdRoWPRGclt4bNfOskkfOfjtGZttqPfbZJme3cELAMNrs1sdRoWPRGclt4bNfOskkfOfjtGZttqPfbZJme3cJuKtTkZlxZ7qU2lRn6TMh9QFfhYBhtdmtjqNCx6IzktvDZr51kkj5z8dozNttR77bJMz27hkGnPRM6L9lidBlVn0e9PJ1paUcFct+VjsV4nnDZSpThoWg08xSjM1LIuJRn3mY38VfS35MsR9gwPw6BWN1PGO6c344T2Udvod9FBqyetU9G3TU3n20tKSrGIamSJPmNLRt8tJ+lSUkZ/OZg30O+ig1ZPWqejbpqbz7aWlJVjENTJEnzGlo2+Wk/SpKSM/nMxsACSjH2+h30UGrJ61T0bdNTefbS0pKsYhqZIk+Y0tG3y0n6VJSRn85mDfQ76KDVk9ap6NumpvPtpaUlWMQ1MkSfMaWjb5aT9KkpIz+czGwAAx9vod9FBqyetU9G3TU3n20tKSrGIamSJPmNLRt8tJ+lSUkZ/OZg30O+ig1ZPWqejbpqbz7aWlJVjENTJEnzGlo2+Wk/SpKSM/nMxsAAMfb6HfRQasnrVPRt01N59tLSkqxiGpkiT5jS0bfLSfpUlJGfzmYN9DvooNWT1qno26am8+2lpSVYxDUyRJ8xpaNvlpP0qSkjP5zMbAADH2+h30UGrJ61T0bdNTefbS0pKsYhqZIk+Y0tG3y0n6VJSRn85mDfQ76KDVk9ap6NumpvPtpaUlWMQ1MkSfMaWjb5aT9KkpIz+czGwAAx9vod9FBqyetU9G3TU3n20tKSrGIamSJPmNLRt8tJ+lSUkZ/OZg30O+ig1ZPWqejbpqbz7aWlJVjENTJEnzGlo2+Wk/SpKSM/nMxsAAMfb6HfRQasnrVPRt01N59tLSkqxiGpkiT5jS0bfLSfpUlJGfzmYN9DvooNWT1qno26am8+2lpSVYxDUyRJ8xpaNvlpP0qSkjP5zMbAADH2+h30UGrJ61T0bdNTefbS0pKsYhqZIk+Y0tG3y0n6VJSRn85mDfQ76KDVk9ap6NumpvPtpaUlWMQ1MkSfMaWjb5aT9KkpIz+czGwAAx9vod9FBqyetU9G3TU3n20tKSrGIamSJPmNLRt8tJ+lSUkZ/OZg30O+ig1ZPWqejbpqbz7aWlJVjENTJEnzGlo2+Wk/SpKSM/nMxsAAMfb6HfRQasnrVPRt01N59tLSkqxiGpkiT5jS0bfLSfpUlJGfzmYwnL/AP4s9DNRtc52pWV19XVYewxFjVWG4pVt08ZZNtlzXJjrOxuKW6pz/tE2okk2RrPYyHawAMk0b0a0s03y3MrLBMGqqOSzIh0iHIbXAZQWq+GttnbfbhJa1q385mozMzMxbGMApK7VJ7Uarx6vZsbeoXX29kRH1l8mnGTitme/wEpOR83n4R98R+MGb+3mv3ZBElJZhqyuukLs1olIrpqGoZH5LzanIxrdMvSg0tpL/NMXrj/3yj4pU3efdLAACCoAAAAAAAAAAAAAAAAI6rZmNTrhcmyTKbempXHaI++K31dlJtH6zWlbn+DhCIsPlNoPYNv+Irx76LsjtTIuzeb1jtJHaHH5usdTjbcPq5PJ/wDO48Fh8ptB7Bt/xFeOii/yn4pVXecZrQAAOdUAAAAAAAAAAAAAAAAAAAAAAAAAAAAAAAAAAAAAAAAAAAAAAGL0OiGRSa6TEyC/exqwq8rtrmgusYsEOylQ5rzjjjT7cuIbSOInTQpvhdLyELS4lRFw+w+jfQwqupqsU1BzfGOzq8qiVKqp7BSrOATq3UsPvOsOLSZKcc2eZNp8uNWzhGe41wAFG8T+M8bzhTrXd/JY+VK4n0qPrbLbbaEbqQZm2ZNJ3IzNRmZ+UKS5oxlcTANTo1TBoSyjUmbKdcYctpPUYTLrZMpSh42FL7k8x80JZSk3XnC7uI3D28AHzjtqZjtNKMjNCEpPbzbkQ+gAACr6W/JliPsGB+HQLQKvpb8mWI+wYH4dArG6njGUpzvI4T2WgAASUAAAAAAAAAAAAAABQc61x0907ySHh+QuZFJup8JdixBpMVtbl04yFkhTqigx3uBJLMi3Vt3mQutdPYtK+NZRm5CGZTSXm0yYzkd0kqLciW06lK21d/elSSUR9xkRgPSAAAAAAAAAAAAAq+I/GDN/bzX7sgiSkvQ05XXR11ilyl181bUwi8lltLkYltGfpWam1F/lGI3EfjBm/t5r92QRMvdr9uw+Tyuy+qSes7/D6xxs8nb1cPP39fCL13+UfFKm7z7veAAIKgAAAAAAAAAAAAAAAAjqt6Y7OuESa1MVtmalEd0i75TfV2VG6frJalt/4NkIiw+U2g9hW/4ivEvVszGp1wuTZJlNvTUrjtEffFb6uyk2j9ZrStz/AAcIRFh8ptB7Bt/xFeL0X+U/FKu7zjNaAABBUAAAAAAAAAAAAAAAAAAAAAAAAAAAAAAAAAAAAAAAAAAAAAAAAAAAAAAAAAVfS35MsR9gwPw6BaBR8OyPH8S0ZxvI8qvK+nqoGPQHZU6fJRHjsIKOjyluLMkpL1mYrG6njGUpzvI4T2XgB4KC+p8qoa3J8dsGZ9VbxGZ8GWye7ciO6gltuJP50qSojL1GPeJKAAAAOedV9MkZ50rdOrC9wdN5j1bhuQk5Im1pyq6PPOXWrik6akm3zN21OISrv3aNSe9G5dDAA/nzpTp5rVik3JsiTik2ZnddieRt3bDWF2FO1kE913iiomXSp+1o6Zp4mHIjJm2hS0cbBqSSoOn0isrjDdYsZpKLUrGcdyKHi9iTsDS84UdM1D6zmcqkcaZObHQbaEPMr50l1svKN8lJNX9IgAcKYdieSO6cYDH1c0VVI01o8lvUWmPU+K2r8acwsj7OnKoJKXZbTJOGs+q8pSGlmlxKUIIjT5KjQrNciusIqtUNPLC4oouD581DhT69UpiFEfsIq6eBII0mlL6IxN8DSjNaVM926m+7vYAHHuA6bas5NmekthPyfP8ACJMHSJqHa2sKsiKd671hgziSDsYchtDmxGo08KXPJPv23Hm6QWn2TW+YZ83Mwm+yTM7OnrmNJsiapnZbVLObQZOOdbabNmrWUjgeccWbKXEbEROEngLssAHC+WaI3dtTdIy/tdM51hlVhlVWilsUVLipciKcGpTJXBcJHHy1LacJamdiM2tlf9suH453oI9RZVm13geks6FJrtScIscdkVdQ6k4zDj0QrWRENtPkJWjm9Zcb2JRErmme3d3cAAAAAAAAAAACr4j8YM39vNfuyCJKSzDVlddIXZrRKRXTUNQyPyXm1ORjW6ZelBpbSX+aYjcR+MGb+3mv3ZBElJehpyuujrrFrlLrpq2phF5LLaXIxLaM/Ss1NqL/ACjHRXf5R8UqbvPulgABzqgAAAAAAAAAAAAAAAAhqLsjtTIuzeb1jtJHaHH5usdTjbcPq5PJ/wDO48Fh8ptB7Ct/xFeJeremOzrhEmtTFbZmpRHdIu+U31dlRun6yWpbf+DZCIsPlNoPYNv+Irx0UX+U/FKq7zjNaAABzqgAAAAAAAAAAAAAAAAAAAAAAAAAAAAAAAAAAAAAAAAAAAAAAAAAAAAAAAAD+YvSw6A/SH15xDGNQdPdYJ2UQmKSvfjYRbSExWoZlFSRlCUWzBqVvt/SpQrYvKcWexD+nQq+lvyZYj7Bgfh0CsbqeMZSnO8jhPZE4xQZJeU+D5KeT5ViDcSoiLnYqUaq5Ti1MpM2JZnEUtC2zPgMozjKN09xEQmYWJ30W5u7R/U3JZka1bNESufj1pR6kz/rxlIiJdUZfr3Hi9RiygJKKV4AZX4G+C/juzXtLrHO8I+qUvaPBvvyeDs/qnB82/V+P+9v3iQm4nfSrmktGNTclhxqpskS65iPWnHtjL+vJUuIp1Jn+ocZL1ELKACtQsTvotzd2j+puSzI1q2aIlc/HrSj1Jn/AF4ykREuqMv17jxeoxH+AGV+Bvgv47s17S6xzvCPqlL2jwb78ng7P6pwfNv1fj/vb94uoAK1NxO+lXNJaMam5LDjVTZIl1zEetOPbGX9eSpcRTqTP9Q4yXqIIWJ30W5u7R/U3JZka1bNESufj1pR6kz/AK8ZSIiXVGX69x4vUYsoAKV4AZX4G+C/juzXtLrHO8I+qUvaPBvvyeDs/qnB82/V+P8Avb94kJuJ30q5pLRjU3JYcaqbJEuuYj1px7Yy/ryVLiKdSZ/qHGS9RCygArkXFryPb29k7qRkUmPZMqajV7rFcUesUZmZORzRFS6pRbkRE846nyS3SfeZxvgBlfgb4L+O7Ne0usc7wj6pS9o8G+/J4Oz+qcHzb9X4/wC9v3i6gArU3E76Vc0loxqbksONVNkiXXMR6049sZf15KlxFOpM/wBQ4yXqIIWJ30W5u7R/U3JZka1bNESufj1pR6kz/rxlIiJdUZfr3Hi9RiygApXgBlfgb4L+O7Ne0usc7wj6pS9o8G+/J4Oz+qcHzb9X4/72/eJCbid9KuaS0Y1NyWHGqmyRLrmI9ace2Mv68lS4inUmf6hxkvUQsoAK1CxO+i3N3aP6m5LMjWrZoiVz8etKPUmf9eMpERLqjL9e48XqMR/gBlfgb4L+O7Ne0usc7wj6pS9o8G+/J4Oz+qcHzb9X4/72/eLqACtTcTvpVzSWjGpuSw41U2SJdcxHrTj2xl/XkqXEU6kz/UOMl6iCFid9Fubu0f1NyWZGtWzRErn49aUepM/68ZSIiXVGX69x4vUYsoAM/wBJKO0xx3Maq4zK4ymU3kCFKs7ZqG3JdI62EZEpMNhhnZJHsXC2R7EW5me5i4vdr9uw+Tyuy+qSes7/AA+scbPJ29XDz9/XwiGxH4wZv7ea/dkESUlmGrK66QuzWiUiumoahkfkvNqcjGt0y9KDS2kv80xeu/yj4pU3efdLAACCoAAAAAAAAAAAAAAAAI6rZmNTrhcmyTKbempXHaI++K31dlJtH6zWlbn+DhCIsPlNoPYNv+Irx76LsjtTIuzeb1jtJHaHH5usdTjbcPq5PJ/87jwWHym0HsG3/EV46KL/ACn4pVXecZrQAAOdUAAAAAAAAAAAAAAAAAAAAAAAAAAAAAAAAAAAAAAAAAAAAAAAAAAAAAAAAAVfS35MsR9gwPw6BaBV9LfkyxH2DA/DoFY3U8YylOd5HCey0AACSgAAAAAAAAAAAAAAAAAAAAAAAAAAAAACr4j8YM39vNfuyCJKS9DTlddHXWLXKXXTVtTCLyWW0uRiW0Z+lZqbUX+UYjcR+MGb+3mv3ZBEy92v27D5PK7L6pJ6zv8AD6xxs8nb1cPP39fCL13+UfFKm7z7veAAIKgAAAAAAAAAAAAAAAAjqt6Y7OuESa1MVtmalEd0i75TfV2VG6frJalt/wCDZCIsPlNoPYNv+IrxL1bMxqdcLk2SZTb01K47RH3xW+rspNo/Wa0rc/wcIRFh8ptB7Bt/xFeL0X+U/FKu7zjNaAABBUAAAAAAAAAAAAAAAAAAAAAAAAAAAAAAAAAAAAAAAAAAAAAAAAAAAAAAAAAVfS35MsR9gwPw6BaBV9LfkyxH2DA/DoFY3U8YylOd5HCey0AACSgAAADnzpHQsln6w6Ew6XULIMejScknJkx64oqmpBor3nEqcS+y5xbcKkeciJLizLZfCtPQYhcnwvD81YiRswxWnvGq+UidDTZQGpRRpKPgPtk4lRIcSfeSi7y+YBylhuvGs+RNZLjz+VpTaaSYfeIy+T2fG4pt6h5xuA4Zcvgb/oY65JoQlKVc5vu4fJOv5B0kNZcAxGPe1mfuagOZPpvBypC+oVyU0kt2VGjqdZNlDSFMqTIcWlMhaiJTB/0nDxEXTON6AYpj1FnlU9eXdtP1JfefyG5mqjJmyFLjJjJJJMMtsoJtlCUoImvmM1cSjUZzWFaOaa4DQv0GP4bTtt2ENmFayDro5P26GmuUlUxSEJ6wo0bkZrI/OZbER7AOQdRrnUrPtM3sM1Goo+VqqtV8cr6+Bmcyj6zLZdQ26qLappjkxmtlLMy/oCUbK2jNtR7qVEUmf5BpbT6ny9OtPq3TG/ezjH8Mn4XizcF1mo5qyb7Wiqkoiw3HZjbiEtLdbS2SktczjMjQO4qfS7TPHqGFitBp3jFZS1sxNjDrYdRHZixpRK4ifbaQgkIcJRmolkRK3799x9bbTjTy/lWs69wPHbGTewU1dq9Lq2Hlz4aTM0x31KSZutEZmZIVukjM+4BylZa2a4ycJjYWjJrinzJdlkHU7F6RjZPHArm0LNdrJYKbCjOI5nC43HiuOKUlPksJ41lXMo6TmvJ6aaW6sduyYmPvYDEyvM38XjVMyXCeWtreRLrJhlIdgLTzEmcRxpaNnFcfkpSOwJ+i+jtrj1TiNppPhsyioXOdVVcihiuRIDnf5bDKkGhpXefegiPvMLTRnR+8i0sG70ow6wjY2e9KzKoorqKw9yP/AKZKkGTPelJ+Rt3kXoAc+ZRrfqYudl2odLnD0SFhuZVGNwcOTXRuRdRZaYv9I+p1lUtL7hSlLa5LqEpJpJKbX5ZH+q3VvV9GoMSzm586/TOavTMFKk7PhpjrrjjqUhSnCZJ/nNrT5KkuERp7lpUfeXSczT7ArHLYefWGEUEnJ69k48O6erWVz47R77obkGnmISfEruJRF5R+kfUsHwonEulh9IS0WR3KVFXs7psDIyOWR8Pc+ZGZcz4Wx+cBNgAAAAAAAAAq+I/GDN/bzX7sgiSksw1ZXXSF2a0SkV01DUMj8l5tTkY1umXpQaW0l/mmI3EfjBm/t5r92QRJSXoacrro66xa5S6+atqYReSy2lyMS2jP0rNTai/yjHRXf5R8UqbvPulgABzqgAAAAAAAAAAAAAAAAhqLsjtTIuzeb1jtJHaHH5usdTjbcPq5PJ/87jwWHym0HsG3/EV4l6t6Y7OuESa1MVtmalEd0i75TfV2VG6frJalt/4NkIiw+U2g9g2/4ivHRRf5T8UqrvOM1oAAHOqAAAAAAAAAAAAAAAAAAAAAAAAAAAAAAAAAAAAAAAAAAAAAAAAAAAAAAAAAMK09yDpLtYDjTdVpJplJhIp4aYz0jUSwZdcaJlHApbaaRZIUadjNJLURGZkSlbbnuoq+lvyZYj7Bgfh0CsbqeMd05vxwnsqXhH0p/qb0q+8ux9xB4R9Kf6m9KvvLsfcQ1UBJRlXhH0p/qb0q+8ux9xB4R9Kf6m9KvvLsfcQ1UAGVeEfSn+pvSr7y7H3EHhH0p/qb0q+8ux9xDVQAZV4R9Kf6m9KvvLsfcQeEfSn+pvSr7y7H3ENVABlXhH0p/qb0q+8ux9xB4R9Kf6m9KvvLsfcQ1UAGVeEfSn+pvSr7y7H3EHhH0p/qb0q+8ux9xDVQAZV4R9Kf6m9KvvLsfcQeEfSn+pvSr7y7H3ENVABlXhH0p/qb0q+8ux9xB4R9Kf6m9KvvLsfcQ1UAGVeEfSn+pvSr7y7H3EHhH0p/qb0q+8ux9xDVQAZV4R9Kf6m9KvvLsfcQ4J1r1g6cWM9NyZQ9H2hZsb2ZV1snJ8Sqr2TkNCw+aDQ2qQuVFhor1LjojGo0cG5GlXNM1mkv6lj4sxIsd19+PGaaclLJx9aEElTqySSSUoy+EfClKdz+ZJF5iAUDRaXmc+uv5molNW1OSvWcZVnCrpapMZh/suDxJbcUlJqL/wAdx7luoi4juz3a/bsPk8rsvqknrO/w+scbPJ29XDz9/XwiGxH4wZv7ea/dkESUlmGrK66QuzWiUiumoahkfkvNqcjGt0y9KDS2kv8ANMXrv8o+KVN3n3SwAAgqAAAAAAAAAAAAAAAACOq2ZjU64XJskym3pqVx2iPvit9XZSbR+s1pW5/g4QiLD5TaD2Db/iK8e+i7I7UyLs3m9Y7SR2hx+brHU423D6uTyf8AzuPBYfKbQewbf8RXjoov8p+KVV3nGa0AADnVAAAAAAAAAAAAAABxS3rJr0zpDh+WlmGU39rqDmb+MrTTV1Ew5UxWZU3gVEKYhtg5DiWGmjVJcW3v3pbSo+/3Y3rHrdlDmJ4nkufO4a5Hpclupt00VHNdtOzZSWWGZSmesw2z5auOSiOaFEojJCmiIyIOyAHFWMdI7VZ3S6vyi9zxg5L2gys0XMchRWm3LdJ7HLIjaSRF3p/o9ibLct0EPjY9IfX+bmjSaVVmzDx9OINPIcXjsWns+0kNKkrmOTpDMwnXOYtEdMPZPMQkjS4ZmgB22A46XrRq9E6QNtiWZZhdVuK5HaW2PYnMoo9PZ1DzrMLmk2brZHNgWDKm3DUUnnNL4XC5aCSShS9HMBx/UST0bqvV2NH1Fj2GGZHaOIyqviTk85TkUyPhNkkqNJqVstZKc8o91nuA75AcF1upOouGcnSDSI8mZxR/Nspr6Sbjiqh6TFgV7Takwoq7lwoiWG31SEmk9zQ2wbbZJJPk2G01p19vscjWCNQouOzIujzmbSjpY9XPYk2jL5klaHdpLKo7qE+UTbqi4VFwLSZcQDtMBxDnWvWotDZZfd4rBaYs75Gn0HrVZW1pTYpWaVk8pDsrltuubny2etOKaQtxPcZbpVP0GrGtmQWOE6bZFmk/FF2mRZBEkXriaGZaSY1ewlxmJJKIciAzIUa1k6SEpURMnwpbM9yDr8B/KWXMOgnaBarFJJ9WnGH5FlzjrBK4XIzF5HRLUSUq7yOK9I2LdXnLziyYNnucad2OompuJM2SMg1Zl4hZSJDLMXrUNm3nS0tqZbnKRGQ8UfkNNk+fLJxSTWSu8lB/TYBxZkurXSeVpvVR6OZZqtouVW0CxKFY4q5lcipismsnERyW/XPSWlH/AE8dokLMkpJJNcRmPJqj0l9VGMawPU7Dsutl4KjD2skyewpKmqOyjKJ9tJyZ9NNcVJOEokupV1R5CkGTiidUSUkYdvAOPLvpCalSNdMbl4hlb68Jn5ujC5lVZMwYrclzqJvKOJHJlya4pJ7KU87JZIt0pKMtO6zjsH6QGrb8nAcqsNRe3HM1iZdaysRTAhNpi9noXyIrCkNJkcKFpSlZuLWo1n8Ii8kB2oA5a6IuresmoVnDd1Al2M6ryDEYmSodtHcfbW1Jec2/6FiskLf6gpKjJCpSDcI29lOGZmQ6lAAAAAAAAAAAAAAAVfS35MsR9gwPw6BaBV9LfkyxH2DA/DoFY3U8YylOd5HCey0AACSgAAAAAAAAAAAAAAAAAAAAAAAAAAAAACr4j8YM39vNfuyCJKS9DTlddHXWLXKXXTVtTCLyWW0uRiW0Z+lZqbUX+UYjcR+MGb+3mv3ZBEy92v27D5PK7L6pJ6zv8PrHGzydvVw8/f18IvXf5R8UqbvPu94AAgqAAAAAAAAAAAAAAAACOq3pjs64RJrUxW2ZqUR3SLvlN9XZUbp+slqW3/g2QiLD5TaD2Db/AIivEvVszGp1wuTZJlNvTUrjtEffFb6uyk2j9ZrStz/BwhRtR52okDPsZc04xbHL2aqnt0vs3d+/VNIa50DykuMw5RrVxbFwmhJbGZ8Xdsd6L/KfilXd5xm0oBlXhH0p/qb0q+8ux9xB4R9Kf6m9KvvLsfcQgq1UBlXhH0p/qb0q+8ux9xB4R9Kf6m9KvvLsfcQDVQGVeEfSn+pvSr7y7H3EHhH0p/qb0q+8ux9xANVAZV4R9Kf6m9KvvLsfcQeEfSn+pvSr7y7H3EA1UBlXhH0p/qb0q+8ux9xB4R9Kf6m9KvvLsfcQC6S9O9P7DFXsEn4Lj0nGpJqN6merGFwXTU5zFcTBp5at1maz3T3qPfziPu9HtKsixyqxK305xmRU0BJOliOU8ZbVUtCeFtcRCkGlhSC+CaCLh2LYVvwj6U/1N6VfeXY+4g8I+lP9TelX3l2PuIB68a6OukNDgeH6f2uF1OVQ8FrEVNPLyOuizpTLKWybUfGpoiSpaSIlcCUkfo27hZZWmWm829psom6fY1IucdZKPT2LtTHXKrmiIyJEd00cbKdjMtkGRbGKf4R9Kf6m9KvvLsfcQeEfSn+pvSr7y7H3EAuDOmWm0bM3tR4+nuNNZZIaNl6+RUx02LjZpJJoVJJHNNPCRFsattiIhBWPR26P1vXs1NtoXp7NgxpD0tmNIxiE402+8ZG66lCmjIlrMiNSiLdWxb7iM8I+lP8AU3pV95dj7iDwj6U/1N6VfeXY+4gFsttKtL7/ABGJp/e6b4tY4vXpaTEpJdPHegRybLZsm46kG2gkl3J2SW3zD3ycKw2apxczEqV9T1cdO4bsBpRrgH54p7p72f1Z+T6hRPCPpT/U3pV95dj7iDwj6U/1N6VfeXY+4gFzk6dafTIVlWzMEx5+HcxGq+yju1bCm5sVpJpaYeSadnG0JM0pQrdJEexERDzv6UaWysVg4LJ02xV7GqtxD0Gmcpo6oMVxCjUhbTBo5aFJMzMjSkjIzMyFU8I+lP8AU3pV95dj7iDwj6U/1N6VfeXY+4gFuRpdpm22y03p1jCUR4MirZSmojkTcOQolPx0lwdzTiiI1oLyVGRGZGP3I0206lwp9ZKwHHHodrBaq58dyqYU3LhNEZNRnUmnZxpBKUSW1bpIjPYi3FO8I+lP9TelX3l2PuIPCPpT/U3pV95dj7iAWax0d0jt8Qh6e22lmITcWrlJXDo5FHFcr46i32NuOpBtoMuJWxkkvOfpH7v9JdKsrRTt5TplilwnHeHsdNhSxpBV3Dw8PV+NB8nbgTtwbbcJeghVvCPpT/U3pV95dj7iDwj6U/1N6VfeXY+4gFpf0j0plZYrPZOmOJvZMtxt1V05SxlTzW3ty1HINHM3TsXCfF3bFsKBp50TdO9ONSZGp9dc3ljZOSJ0tlmciDwsvy1bvOKeZjNyZK+HyEqlPPGhB7JMhLeEfSn+pvSr7y7H3EHhH0p/qb0q+8ux9xALriunuA4K9ZSMJwfH8eduZBy7JdVWMxFTXzMzN142kpNxe5n5Stz7zFgGVeEfSn+pvSr7y7H3EHhH0p/qb0q+8ux9xANVAZV4R9Kf6m9KvvLsfcQeEfSn+pvSr7y7H3EA1UBlXhH0p/qb0q+8ux9xB4R9Kf6m9KvvLsfcQDVQGVeEfSn+pvSr7y7H3EHhH0p/qb0q+8ux9xANVAZV4R9Kf6m9KvvLsfcQeEfSn+pvSr7y7H3EA1UVfS35MsR9gwPw6B/NPoXaxdOux1WtsV0yok51o7Cv5UNmfkFq/Jr4UFEhSS6lcPNtvyeFBJSkuUvydjNhviPb+lmlvyZYj7Bgfh0CsbqeMZSnO8jhPZaAABJQAAAAAAAAAAAAAAAAAAAAAAAAAAAAABV8R+MGb+3mv3ZBElJZhqyuukLs1olIrpqGoZH5LzanIxrdMvSg0tpL/NMRuI/GDN/bzX7sgiSkvQ05XXR11ilyl181bUwi8lltLkYltGfpWam1F/lGOiu/yj4pU3efdLAADnVAAAAAAAAAAAAAAAABB1rtVAub5qPDsm5DzyJ8txcN42XVdXabI2VknhX5DSCNCTNXEk+7vLet2GV1fhtQXfVbnq/Ytu3wdizOsb9Yr+/kcrm7f3uHb1jQBV7D5TaD2Db/AIivHRoqqZqtmJ9J9/8A8z/COkiYp8sYzhLvX0FiZDgrYsTcnJ4mlIrZC20l+scSg0NH6lmkwZvoL8yZBQxYk5BTxOqXWyENqL9W4pBIdP1INRiRARtpw/3RTzQ3hXV9kdt9Vuer8zl8HYszrG/p5HK5u397h29Y9D19BYmQ4K2LE3JyeJpSK2QttJfrHEoNDR+pZpMSIDNtGE9f0WVYo5m+gvzJkFDFiTkFPE6pdbIQ2ov1bikEh0/Ug1GPP4V1fZHbfVbnq/M5fB2LM6xv6eRyubt/e4dvWJkAtownr+iyrFHPX0FiZDgrYsTcnJJTSkVshbaS/WOJQaGj9SzSYM30F+ZMgoYsScgp4nVLrZCG1F+rcUgkOn6kGoxIgMW04f7oeaG8K6vsjtvqtz1fmcvg7FmdY39PI5XN2/vcO3rHoevoLEyHBWxYm5OTxNKRWyFtpL9Y4lBoaP1LNJiRAZtownr+iyrFHM30F+ZMgoYsScgp4nVLrZCG1F+rcUgkOn6kGox5/Cur7I7b6rc9X5nL4OxZnWN/TyOVzdv73Dt6xMgFtGE9f0WVYo56+gsTIcFbFibk5PE0pFbIW2kv1jiUGho/Us0mDN9BfmTIKGLEnIKeJ1S62QhtRfq3FIJDp+pBqMSIDFtOH+6HmhvCur7I7b6rc9X5nL4OxZnWN/TyOVzdv73Dt6x6Hr6CxMhwVsWJuTk8TSkVshbaS/WOJQaGj9SzSYkQGbaMJ6/osqxRzN9BfmTIKGLEnIKeJ1S62QhtRfq3FIJDp+pBqMefwrq+yO2+q3PV+Zy+DsWZ1jf08jlc3b+9w7esTIBbRhPX9FlWKOevoLEyHBWxYm5OTxNKRWyFtpL9Y4lBoaP1LNJgzfQX5kyChixJyCnidUutkIbUX6txSCQ6fqQajEiAxbTh/uh5obwrq+yO2+q3PV+Zy+DsWZ1jf08jlc3b+9w7eseh6+gsTIcFbFibk5PE0pFbIW2kv1jiUGho/Us0mJEBm2jCev6LKsUczfQX5kyChixJyCnidUutkIbUX6txSCQ6fqQajHn8K6vsjtvqtz1fmcvg7FmdY39PI5XN2/vcO3rEyAW0YT1/RZVijnr6CxMhwVsWJuTk8TSkVshbaS/WOJQaGj9SzSYM30F+ZMgoYsScgp4nVLrZCG1F+rcUgkOn6kGoxIgMW04f7oeaG8K6vsjtvqtz1fmcvg7FmdY39PI5XN2/vcO3rHoevoLEyHBWxYm5OTxNKRWyFtpL9Y4lBoaP1LNJiRAZtownr+iyrFHM30F+ZMgoYsScgp4nVLrZCG1F+rcUgkOn6kGox5/Cur7I7b6rc9X5nL4OxZnWN/TyOVzdv73Dt6xMgFtGE9f0WVYo56+gsTIcFbFibk5PE0pFbIW2kv1jiUGho/Us0mDN9BfmTIKGLEnIKeJ1S62QhtRfq3FIJDp+pBqMSIDFtOH+6HmhvCur7I7b6rc9X5nL4OxZnWN/TyOVzdv73Dt6x6Hr6CxMhwVsWJuTk8TSkVshbaS/WOJQaGj9SzSYkQGbaMJ6/osqxRzN9BfmTIKGLEnIKeJ1S62QhtRfq3FIJDp+pBqMefwrq+yO2+q3PV+Zy+DsWZ1jf08jlc3b+9w7esTIBbRhPX9FlWKIas6epVW0kSumMNvtJTFbjVT/ACGUEWxJUpDfAyRF3cKzTt6BXdJ76C/p9jsFDFiTkGggKdUutkIbUXV0f9txSCQ6fqQajF5FX0t+TLEfYMD8OgUiadlPl7x3/hpNu0jhPZ7/AArq+yO2+q3PV+Zy+DsWZ1jf08jlc3b+9w7eseh6+gsTIcFbFibk5JKaUitkLbSX6xxKDQ0fqWaTEiAnbRhPX9N7KsUczfQX5kyChixJyCnidUutkIbUX6txSCQ6fqQajHn8K6vsjtvqtz1fmcvg7FmdY39PI5XN2/vcO3rEyAW0YT1/RZVijnr6CxMhwVsWJuTk8TSkVshbaS/WOJQaGj9SzSYM30F+ZMgoYsScgp4nVLrZCG1F+rcUgkOn6kGoxIgMW04f7oeaG8K6vsjtvqtz1fmcvg7FmdY39PI5XN2/vcO3rHoevoLEyHBWxYm5OTxNKRWyFtpL9Y4lBoaP1LNJiRAZtownr+iyrFHM30F+ZMgoYsScgp4nVLrZCG1F+rcUgkOn6kGox5/Cur7I7b6rc9X5nL4OxZnWN/TyOVzdv73Dt6xMgFtGE9f0WVYo56+gsTIcFbFibk5PE0pFbIW2kv1jiUGho/Us0mDN9BfmTIKGLEnIKeJ1S62QhtRfq3FIJDp+pBqMSIDFtOH+6HmhvCur7I7b6rc9X5nL4OxZnWN/TyOVzdv73Dt6x6Hr6CxMhwVsWJuTk8TSkVshbaS/WOJQaGj9SzSYkQGbaMJ6/osqxRzN9BfmTIKGLEnIKeJ1S62QhtRfq3FIJDp+pBqMefwrq+yO2+q3PV+Zy+DsWZ1jf08jlc3b+9w7esTIBbRhPX9FlWKOevoLEyHBWxYm5OTxNKRWyFtpL9Y4lBoaP1LNJgzfQX5kyChixJyCnidUutkIbUX6txSCQ6fqQajEiAxbTh/uh5obwrq+yO2+q3PV+Zy+DsaZ1jf08jlc3b+9w7eseh6+gsTIcFbFibk5PE0pFbIW2kv1jiUGho/Us0mJEBm2jCev6LKsVQxaX1fJM1bfg2LRLtG5ja1176W3mkwIrRm2s0cLh8bThbJMz8nfbYyM5Svtpt1Ywp1a0+3TnGlJkpmQnor/AFgls8nZt5KV8PDz9z22PyRNgNqtJFU22e1n9WMRTMeVv+ttAABJuAAAAAAAAAAAAAAAAAPwbTRupfNtJuISaErMvKJJmRmRH6D4S3/wL0AAzT6sS/YAAwyAAAAAAAAAAAAAAAAAAAAAAAAAAAAAAAAAAAAAAAAAAAAAAAAAAAAAAAAAPw000w0hhhtLbbaSQhCC2SlJdxERF5iABn2Y937AAGGQAAAAAAAAAAAAAAAAAAAAAAAAAAAAAAAAAAAAAAAAAAB//9k=;" vertex="1" parent="1">
          <mxGeometry x="60" y="60" width="591" height="562" as="geometry" />
        </mxCell>
      </root>
    </mxGraphModel>
  </diagram>
</mxfile>
